<?xml version="1.0" encoding="utf-8"?>
<!-- Generator: Adobe Illustrator 19.2.0, SVG Export Plug-In . SVG Version: 6.00 Build 0)  -->
<svg version="1.1" xmlns="http://www.w3.org/2000/svg" xmlns:xlink="http://www.w3.org/1999/xlink" x="0px" y="0px"
	 viewBox="0 0 300 300" style="enable-background:new 0 0 300 300;" xml:space="preserve">
<style type="text/css">
	.st0{display:none;}
	.st1{display:inline;}
	.st2{fill:#56A0CB;}
</style>
<g id="Layer_1" class="st0">
	<g class="st1">
		<g>
			<path class="st2" d="M212.2,205.8c-5.5,0-10.1-4.5-10.1-10.1c0-5.5,4.5-10,10.1-10c5.6,0,10.1,4.5,10.1,10
				C222.2,201.3,217.7,205.8,212.2,205.8L212.2,205.8z M212.2,173c-12.6,0-22.8,10.2-22.8,22.8c0,12.6,10.2,22.8,22.8,22.8
				c12.6,0,22.8-10.2,22.8-22.8C235,183.2,224.8,173,212.2,173L212.2,173z"/>
			<path class="st2" d="M59.5,205.8c-5.5,0-10-4.5-10-10.1c0-5.5,4.5-10,10-10s10,4.5,10,10C69.6,201.3,65.1,205.8,59.5,205.8
				L59.5,205.8z M59.5,173c-12.6,0-22.8,10.2-22.8,22.8c0,12.6,10.2,22.8,22.8,22.8c12.6,0,22.8-10.2,22.8-22.8
				C82.3,183.2,72.1,173,59.5,173L59.5,173z"/>
			<path class="st2" d="M274.2,110.2c0,5.6-4.8,10.1-10.7,10.1h-77.4c-5.9,0-10.7-4.5-10.7-10.1V37.5c0-5.6,4.8-10.1,10.7-10.1h77.4
				c5.9,0,10.7,4.5,10.7,10.1L274.2,110.2L274.2,110.2L274.2,110.2z M274.4,14.1h-98.7c-7.5,0-13.7,5.8-13.7,12.9v93.2
				c0,7.1,6.1,12.9,13.7,12.9h98.7c7.5,0,13.7-5.8,13.7-12.9V27C288.1,19.9,282,14.1,274.4,14.1L274.4,14.1z"/>
			<path class="st2" d="M217.6,72.5c1.3,0.3,2.8,0.4,5,0.4c8,0,12.9-4,12.9-10.8c0-6.1-4.2-9.7-11.7-9.7c-3,0-5.1,0.3-6.2,0.6
				L217.6,72.5L217.6,72.5L217.6,72.5z M202.8,42.4c4.6-0.8,11.1-1.4,20.2-1.4c9.2,0,15.8,1.8,20.2,5.3c4.2,3.3,7.1,8.8,7.1,15.3
				c0,6.5-2.2,12-6.1,15.7c-5.1,4.8-12.7,7-21.5,7c-2,0-3.7-0.1-5.1-0.3v23.7h-14.8L202.8,42.4L202.8,42.4L202.8,42.4z"/>
			<path class="st2" d="M248.2,221.2c0,6-5.2,10.9-11.7,10.9H36c-6.5,0-11.7-4.8-11.7-10.9v-49.9c0-6,5.2-10.9,11.7-10.9h200.4
				c6.5,0,11.7,4.9,11.7,10.9L248.2,221.2L248.2,221.2L248.2,221.2L248.2,221.2z M248.2,146.3H36.3l44-75.9c0,0,1.6-3.1,9-3.1h45.5
				c0,0,10.8,0.7,10.4-6.8c-0.4-4-2.6-6.7-7.3-6.7c-4.6,0-60.5,0-60.5,0s-2.9,0.1-6,5.5c-2.8,4.8-41.6,72.1-50.3,87.2
				c-6.3,1.1-11.1,7.3-11.1,14.8v68.9c0,8.3,5.9,15,13.2,15h13.2v33.1c0,4.1,2.7,7.4,6,7.4h21.3c3.2,0,6-3.3,6-7.4v-33.1h132.7v33.3
				c0,4.1,2.6,7.4,5.9,7.4h21c3.2,0,5.9-3.3,5.9-7.4v-33.3h13.2c7.3,0,13.2-6.6,13.2-15v-68.9C261.4,153,255.5,146.3,248.2,146.3
				L248.2,146.3z"/>
		</g>
	</g>
</g>
<g id="Layer_2" class="st0">
	<g class="st1">
		<path class="st2" d="M122.7,193.6l6.9,17.2c-6.7,2.7-13.3,4.7-19.8,6.1l-3.8-18.2C111.4,197.6,117,195.8,122.7,193.6z M67.4,215.8
			c6.8,2,14,3,21.3,3.1l0.3-18.6c-5.7-0.1-11.2-0.9-16.4-2.4L67.4,215.8z M213.7,183.4c5.4,1.1,10.6,2.9,15.5,5.4l8.5-16.5
			c-6.5-3.4-13.4-5.8-20.5-7.1L213.7,183.4z M174.9,168.2l5.6,17.7c5.7-1.8,11.3-2.9,16.7-3.3l-1.5-18.5
			C188.9,164.6,181.9,166,174.9,168.2z M145.1,182.2c-2.1,1.3-4.1,2.5-6.1,3.6l9,16.2c2.3-1.3,4.6-2.6,6.9-4.1
			c3.2-2,6.3-3.7,9.4-5.3l-8.4-16.5C152.4,177.9,148.8,179.9,145.1,182.2z M196.4,66.4c0,7.6-1.8,14.8-5,21.1L150,168.6
			c0,0-41.7-81.7-41.9-82.1c-2.9-6.1-4.6-12.9-4.6-20.1c0-25.6,20.8-46.4,46.4-46.4C175.6,20,196.4,40.8,196.4,66.4z M177.9,66.4
			c0-15.4-12.5-27.9-27.9-27.9c-15.4,0-27.9,12.5-27.9,27.9c0,15.4,12.5,27.9,27.9,27.9C165.4,94.3,177.9,81.8,177.9,66.4z
			 M242.9,112.9h-43.6l-9.5,18.6h39.7l20,60.1l-6.4,7.1c6.8,6.2,10.4,11.8,10.4,11.9l2-1.2l17.4,52.1H27.2l18.6-55.8
			c0.7,0.5,1.2,0.9,1.9,1.3l9.9-15.7c-2.2-1.4-4-2.8-5.6-4.1l18.6-55.8h39.7c-3.9-7.7-7-13.8-9.5-18.6H57.1L1.4,280h297.1
			L242.9,112.9z"/>
	</g>
</g>
<g id="Layer_3">
	<g>
		<g>
			<g>
				<path class="st2" d="M184.5,80.3c4.5-4.3,7.3-10.3,7.3-16.8V33.9h9.3V6H98.9v27.9h9.3v29.7c0,6.5,2.7,12.5,7.3,16.8H6v195.1
					h121.2C129.4,286,138.8,294,150,294s20.6-8,22.8-18.6H294V80.3H184.5z M108.2,24.6v-9.3h83.6v9.3H108.2z M191.8,150v-29.7
					c0-4.4-1.3-8.6-3.5-12.2h77.8v139.4H154.6v-69.7h46.5V150H191.8z M191.8,159.3v9.3h-83.6v-9.3H191.8z M110.9,201.8
					c1.2-0.5,2.6-0.7,3.9-0.7h0.8c3,0,5.8,1.2,7.9,3.3l3.3,3.3V229H52.5v-12l13.7-13.7c4.4-4.4,10.3-6.9,16.5-6.9
					c6.2,0,12.1,2.4,16.5,6.9l15,15l6.6-6.6L110.9,201.8z M115.6,191.8h-0.8c-3.9,0-7.7,1.1-10.9,3.2c-5.9-5.1-13.3-7.8-21.2-7.8
					c-8.7,0-16.9,3.4-23.1,9.6l-7.1,7.1v-35.2h46.5v9.3h27.9v17.3C123.5,193,119.6,191.8,115.6,191.8z M98.9,159.3H43.2v79h92.9
					v-60.4h9.3v69.7H33.9V108.2h77.8c-2.2,3.6-3.5,7.8-3.5,12.2V150h-9.3V159.3z M182.5,122.1h-9.3v9.3h9.3V150h-65v-18.6h46.5v-9.3
					h-46.5v-1.8c0-5.5,3.3-10.5,8.3-12.8L150,97l24.2,10.6c5.1,2.2,8.4,7.2,8.4,12.8V122.1z M125.8,76.3c-5.1-2.2-8.4-7.2-8.4-12.8
					v-1.8h65v1.8c0,5.5-3.3,10.5-8.3,12.8L150,86.9L125.8,76.3z M117.5,52.5V33.9h65v18.6H117.5z M284.7,266.1H163.9v4.6
					c0,7.7-6.3,13.9-13.9,13.9s-13.9-6.3-13.9-13.9v-4.6H15.3V89.6h117.8l5.3,2.3l-16.3,7.1v-0.2H24.6v157.9h250.8V98.9h-97.5v0.2
					l-16.3-7.1l5.3-2.3h117.8V266.1z"/>
				<rect x="163.9" y="191.8" class="st2" width="92.9" height="9.3"/>
				<rect x="163.9" y="210.4" class="st2" width="92.9" height="9.3"/>
				<rect x="247.5" y="229" class="st2" width="9.3" height="9.3"/>
				<rect x="163.9" y="229" class="st2" width="74.3" height="9.3"/>
				<path class="st2" d="M229,173.2c15.4,0,27.9-12.5,27.9-27.9s-12.5-27.9-27.9-27.9s-27.9,12.5-27.9,27.9
					C201.1,160.7,213.6,173.2,229,173.2z M229,126.8c10.2,0,18.6,8.3,18.6,18.6s-8.3,18.6-18.6,18.6s-18.6-8.3-18.6-18.6
					C210.4,135.1,218.7,126.8,229,126.8z"/>
				<rect x="145.4" y="103.5" class="st2" width="9.3" height="9.3"/>
				<path class="st2" d="M233.9,58.6l8-4.7c-1.6-2.7-3.3-5.3-5.1-7.7l-7.5,5.4C231,53.8,232.5,56.1,233.9,58.6z"/>
				<path class="st2" d="M231.2,38.8c-2-2.3-4.1-4.6-6.3-6.7l-6.5,6.6c2,2,3.9,4,5.8,6.2L231.2,38.8z"/>
				<path class="st2" d="M241.3,73.7l8.7-3.3c-1.1-2.9-2.3-5.7-3.6-8.5l-8.4,4C239.1,68.5,240.3,71.1,241.3,73.7z"/>
				<path class="st2" d="M218,25.9c-2.4-2-4.8-3.8-7.4-5.6l-5.3,7.6c2.3,1.6,4.6,3.3,6.7,5.1L218,25.9z"/>
				<path class="st2" d="M81.6,38.7l-6.5-6.6c-2.2,2.1-4.3,4.4-6.3,6.7l7.1,6.1C77.7,42.7,79.6,40.7,81.6,38.7z"/>
				<path class="st2" d="M70.7,51.5l-7.5-5.4c-1.8,2.5-3.5,5.1-5.1,7.7l8,4.7C67.5,56.1,69,53.8,70.7,51.5z"/>
				<path class="st2" d="M94.6,28l-5.3-7.6c-2.5,1.7-5,3.6-7.4,5.6l5.9,7.2C90.1,31.3,92.3,29.6,94.6,28z"/>
				<path class="st2" d="M62.1,66l-8.4-4c-1.3,2.7-2.6,5.6-3.6,8.5l8.7,3.3C59.8,71.1,60.9,68.5,62.1,66z"/>
			</g>
		</g>
	</g>
</g>
</svg>
