<?xml version="1.0" encoding="utf-8"?>
<!-- Generator: Adobe Illustrator 19.2.0, SVG Export Plug-In . SVG Version: 6.00 Build 0)  -->
<svg version="1.1" id="Layer_1" xmlns="http://www.w3.org/2000/svg" xmlns:xlink="http://www.w3.org/1999/xlink" x="0px" y="0px"
	 viewBox="0 0 50 50" style="enable-background:new 0 0 50 50;" xml:space="preserve">
<style type="text/css">
	.st0{fill:#56A0CB;}
	.st1{fill:#FFFFFF;}
</style>
<circle class="st0" cx="25" cy="25" r="23.1"/>
<g id="Design">
	<g id="Slider---Mast-Head-1" transform="translate(-1274.000000, -570.000000)">
		<g id="Arrows" transform="translate(1225.000000, 570.000000)">
			<path id="Arrow-Right" class="st1" d="M84.1,16.3c-0.5-0.5-1.4-0.5-2,0c-0.5,0.5-0.5,1.4,0,1.9l5.7,5.4H56.3
				c-0.8,0-1.4,0.6-1.4,1.3s0.6,1.3,1.4,1.3h31.5l-6,5.7c-0.5,0.5-0.5,1.4,0,1.9c0.3,0.3,0.7,0.4,1,0.4c0.4,0,0.7-0.1,1-0.4l9.4-9
				L84.1,16.3z"/>
		</g>
	</g>
</g>
</svg>
