<?xml version="1.0" encoding="utf-8"?>
<!-- Generator: Adobe Illustrator 19.2.0, SVG Export Plug-In . SVG Version: 6.00 Build 0)  -->
<svg version="1.1" id="Layer_1" xmlns="http://www.w3.org/2000/svg" xmlns:xlink="http://www.w3.org/1999/xlink" x="0px" y="0px"
	 viewBox="0 0 150 150" style="enable-background:new 0 0 150 150;" xml:space="preserve">
<style type="text/css">
	.st0{fill:#56A0CB;}
	.st1{fill:#FFFFFF;}
	.st2{enable-background:new    ;}
	.st3{fill:#666666;}
</style>
<g>
	<g>
		<circle class="st0" cx="75" cy="65" r="55.3"/>
		<g id="Design">
			<g id="Slider---Mast-Head-1" transform="translate(-1274.000000, -570.000000)">
				<g id="Arrows" transform="translate(1225.000000, 570.000000)">
					<path id="Arrow-Right" class="st1" d="M148.1,44.1c-1.3-1.2-3.4-1.2-4.7,0s-1.3,3.3,0,4.5l13.7,12.9H81.6
						c-1.8,0-3.4,1.4-3.4,3.2c0,1.7,1.4,3.2,3.4,3.2H157l-14.3,13.7c-1.3,1.2-1.3,3.3,0,4.5c0.7,0.7,1.6,0.9,2.4,0.9
						c0.9,0,1.7-0.3,2.4-0.9L170,64.7L148.1,44.1z"/>
				</g>
			</g>
		</g>
	</g>
	<g class="st2">
		<path class="st3" d="M37.1,135.3v-9.6h1.3v4.8l4.8-4.8h1.7l-4,3.9l4.2,5.7h-1.7l-3.4-4.9l-1.6,1.5v3.3H37.1z"/>
		<path class="st3" d="M50.8,133.1l1.2,0.2c-0.2,0.7-0.5,1.3-1.1,1.7c-0.5,0.4-1.2,0.6-2,0.6c-1,0-1.8-0.3-2.4-0.9
			c-0.6-0.6-0.9-1.5-0.9-2.6c0-1.2,0.3-2.1,0.9-2.7s1.4-1,2.4-1c0.9,0,1.7,0.3,2.3,1c0.6,0.6,0.9,1.5,0.9,2.7c0,0.1,0,0.2,0,0.3
			h-5.2c0,0.8,0.3,1.4,0.7,1.8c0.4,0.4,0.9,0.6,1.5,0.6c0.4,0,0.8-0.1,1.1-0.3S50.6,133.6,50.8,133.1z M46.9,131.1h3.9
			c-0.1-0.6-0.2-1-0.4-1.3c-0.4-0.5-0.9-0.7-1.5-0.7c-0.5,0-1,0.2-1.4,0.5C47.1,130.1,46.9,130.5,46.9,131.1z"/>
		<path class="st3" d="M56.1,134.2l0.2,1c-0.3,0.1-0.6,0.1-0.9,0.1c-0.4,0-0.8-0.1-1-0.2s-0.4-0.3-0.5-0.5c-0.1-0.2-0.1-0.7-0.1-1.4
			v-4h-0.9v-0.9h0.9v-1.7l1.2-0.7v2.4h1.2v0.9h-1.2v4.1c0,0.3,0,0.6,0.1,0.7c0,0.1,0.1,0.2,0.2,0.2c0.1,0.1,0.2,0.1,0.4,0.1
			C55.7,134.3,55.8,134.3,56.1,134.2z"/>
		<path class="st3" d="M61.8,134.4c-0.4,0.4-0.9,0.6-1.3,0.8c-0.4,0.2-0.8,0.2-1.3,0.2c-0.8,0-1.4-0.2-1.8-0.6
			c-0.4-0.4-0.6-0.9-0.6-1.4c0-0.3,0.1-0.7,0.2-0.9c0.2-0.3,0.4-0.5,0.6-0.7c0.3-0.2,0.5-0.3,0.9-0.4c0.2-0.1,0.6-0.1,1.1-0.2
			c1-0.1,1.7-0.3,2.1-0.4c0-0.2,0-0.3,0-0.3c0-0.5-0.1-0.8-0.3-1c-0.3-0.3-0.8-0.4-1.3-0.4c-0.6,0-1,0.1-1.2,0.3
			c-0.3,0.2-0.5,0.5-0.6,1l-1.2-0.2c0.1-0.5,0.3-0.9,0.5-1.2c0.2-0.3,0.6-0.5,1-0.7c0.5-0.2,1-0.2,1.6-0.2c0.6,0,1.1,0.1,1.5,0.2
			c0.4,0.1,0.6,0.3,0.8,0.5c0.2,0.2,0.3,0.5,0.4,0.8c0,0.2,0.1,0.6,0.1,1.1v1.6c0,1.1,0,1.8,0.1,2.1c0.1,0.3,0.1,0.6,0.3,0.8H62
			C61.9,135.1,61.8,134.8,61.8,134.4z M61.7,131.8c-0.4,0.2-1.1,0.3-1.9,0.4c-0.5,0.1-0.8,0.1-1,0.2c-0.2,0.1-0.4,0.2-0.5,0.4
			c-0.1,0.2-0.2,0.4-0.2,0.6c0,0.3,0.1,0.6,0.4,0.8s0.6,0.3,1,0.3c0.5,0,0.9-0.1,1.2-0.3c0.4-0.2,0.6-0.5,0.8-0.8
			c0.1-0.3,0.2-0.7,0.2-1.2V131.8z"/>
		<path class="st3" d="M64.7,135.3v-9.6h1.2v3.5c0.6-0.6,1.2-1,2.1-1c0.5,0,1,0.1,1.3,0.3s0.7,0.5,0.8,0.8c0.2,0.4,0.2,0.9,0.2,1.6
			v4.4h-1.2v-4.4c0-0.6-0.1-1-0.4-1.3c-0.3-0.3-0.6-0.4-1.1-0.4c-0.4,0-0.7,0.1-1,0.3s-0.5,0.4-0.7,0.7s-0.2,0.7-0.2,1.3v3.8H64.7z"
			/>
		<path class="st3" d="M76.8,135.3v-1c-0.5,0.8-1.3,1.2-2.2,1.2c-0.4,0-0.8-0.1-1.2-0.2c-0.4-0.2-0.6-0.4-0.8-0.6
			c-0.2-0.2-0.3-0.5-0.4-0.9c0-0.2-0.1-0.6-0.1-1.1v-4.3h1.2v3.9c0,0.6,0,1,0.1,1.2c0.1,0.3,0.2,0.6,0.5,0.7
			c0.2,0.2,0.5,0.3,0.9,0.3c0.4,0,0.7-0.1,1-0.3c0.3-0.2,0.5-0.4,0.7-0.7c0.1-0.3,0.2-0.8,0.2-1.4v-3.7h1.2v7H76.8z"/>
		<path class="st3" d="M79.7,127v-1.4h1.2v1.4H79.7z M79.7,135.3v-7h1.2v7H79.7z"/>
		<path class="st3" d="M86.5,135.3v-9.6h1.3v8.5h4.7v1.1H86.5z"/>
		<path class="st3" d="M98.6,133.1l1.2,0.2c-0.2,0.7-0.5,1.3-1.1,1.7c-0.5,0.4-1.2,0.6-2,0.6c-1,0-1.8-0.3-2.4-0.9
			c-0.6-0.6-0.9-1.5-0.9-2.6c0-1.2,0.3-2.1,0.9-2.7s1.4-1,2.4-1c0.9,0,1.7,0.3,2.3,1c0.6,0.6,0.9,1.5,0.9,2.7c0,0.1,0,0.2,0,0.3
			h-5.2c0,0.8,0.3,1.4,0.7,1.8c0.4,0.4,0.9,0.6,1.5,0.6c0.4,0,0.8-0.1,1.1-0.3S98.5,133.6,98.6,133.1z M94.8,131.1h3.9
			c-0.1-0.6-0.2-1-0.4-1.3c-0.4-0.5-0.9-0.7-1.5-0.7c-0.5,0-1,0.2-1.4,0.5C95,130.1,94.8,130.5,94.8,131.1z"/>
		<path class="st3" d="M102.4,135.3h-1.1v-9.6h1.2v3.4c0.5-0.6,1.1-0.9,1.9-0.9c0.4,0,0.8,0.1,1.2,0.3c0.4,0.2,0.7,0.4,0.9,0.7
			c0.2,0.3,0.4,0.7,0.6,1.1c0.1,0.4,0.2,0.9,0.2,1.4c0,1.2-0.3,2.1-0.9,2.8c-0.6,0.7-1.3,1-2.1,1c-0.8,0-1.5-0.3-1.9-1V135.3z
			 M102.4,131.8c0,0.8,0.1,1.4,0.3,1.8c0.4,0.6,0.9,0.9,1.5,0.9c0.5,0,1-0.2,1.3-0.7c0.4-0.4,0.6-1.1,0.6-2c0-0.9-0.2-1.6-0.5-2
			s-0.8-0.7-1.3-0.7c-0.5,0-1,0.2-1.3,0.7C102.6,130.3,102.4,130.9,102.4,131.8z"/>
		<path class="st3" d="M108.8,127v-1.4h1.2v1.4H108.8z M108.8,135.3v-7h1.2v7H108.8z"/>
		<path class="st3" d="M111.8,135.3v-9.6h1.2v3.5c0.6-0.6,1.2-1,2.1-1c0.5,0,1,0.1,1.3,0.3c0.4,0.2,0.7,0.5,0.8,0.8
			c0.2,0.4,0.2,0.9,0.2,1.6v4.4h-1.2v-4.4c0-0.6-0.1-1-0.4-1.3c-0.3-0.3-0.6-0.4-1.1-0.4c-0.3,0-0.7,0.1-1,0.3s-0.5,0.4-0.7,0.7
			c-0.1,0.3-0.2,0.7-0.2,1.3v3.8H111.8z"/>
	</g>
</g>
</svg>
