<?xml version="1.0" encoding="utf-8"?>
<!-- Generator: Adobe Illustrator 19.2.0, SVG Export Plug-In . SVG Version: 6.00 Build 0)  -->
<svg version="1.1" id="Layer_1" xmlns="http://www.w3.org/2000/svg" xmlns:xlink="http://www.w3.org/1999/xlink" x="0px" y="0px"
	 viewBox="0 0 496.2 496.2" style="enable-background:new 0 0 496.2 496.2;" xml:space="preserve">
<style type="text/css">
	.st0{fill:#56A0CB;}
	.st1{fill:#261D17;}
	.st2{fill:#703A24;}
	.st3{fill:#86492C;}
</style>
<path class="st0" d="M248.1,0C111.1,0,0,111.1,0,248.1c0,137,111.1,248.1,248.1,248.1c137,0,248.1-111.1,248.1-248.1
	C496.2,111.1,385.1,0,248.1,0z"/>
<path class="st1" d="M394.8,382.7c-7.3-27.3-69.9-49.3-147.1-49.3s-139.1,22.1-146.4,49.3c-3.3,12.2-7,35.2-10.1,57.5
	c42.7,34.9,97.4,55.9,156.9,55.9c59.5,0,114.1-21,156.9-55.9C401.8,417.9,398.1,394.9,394.8,382.7z"/>
<path class="st2" d="M287,282.1h-77.8c12.1,36.6,1,53.3,1,53.3s14.2,17.3,37.9,17.3s37.9-17.3,37.9-17.3S274.8,318.7,287,282.1z"/>
<path class="st1" d="M248.1,61.6c-48.7,0-88.3,21.2-88.3,113.6c0,31.3,6.2,55.8,15.5,74.7c20.4,41.6,55.7,56.1,72.8,56.1
	s52.4-14.5,72.8-56.1c9.3-18.9,15.5-43.4,15.5-74.7C336.3,82.7,296.8,61.6,248.1,61.6z"/>
<path class="st3" d="M248.1,61.6c-48.4,0-87.7,20.9-88.2,111.8c0,0.6,7.6,1.2,7.6,1.8c0,31.3,12.4,97.9,80.7,97.9
	s80.7-66.6,80.7-97.9c0-0.7,7.6-1.4,7.6-2.1C335.7,82.4,296.4,61.6,248.1,61.6z"/>
<g>
	<circle class="st1" cx="294.6" cy="81.1" r="21"/>
	<circle class="st1" cx="263.6" cy="74.1" r="21"/>
	<circle class="st1" cx="232.6" cy="74.1" r="21"/>
	<circle class="st1" cx="201.6" cy="81.1" r="21"/>
</g>
<g>
	<path class="st3" d="M161.4,178c-8.4,1.4-14.9,5.1-10.1,32.9s10.7,29.1,19.1,27.7L161.4,178z"/>
	<path class="st3" d="M334.9,178l-9,60.6c8.4,1.4,14.4,0.1,19.1-27.7C349.7,183.1,343.3,179.5,334.9,178z"/>
</g>
</svg>
