<?xml version="1.0" encoding="utf-8"?>
<!-- Generator: Adobe Illustrator 19.2.0, SVG Export Plug-In . SVG Version: 6.00 Build 0)  -->
<svg version="1.1" xmlns="http://www.w3.org/2000/svg" xmlns:xlink="http://www.w3.org/1999/xlink" x="0px" y="0px"
	 viewBox="0 0 300 300" style="enable-background:new 0 0 300 300;" xml:space="preserve">
<style type="text/css">
	.st0{display:none;}
	.st1{display:inline;}
	.st2{fill:#56A0CB;}
</style>
<g id="Layer_1" class="st0">
	<g class="st1">
		<g>
			<path class="st2" d="M212.2,205.8c-5.5,0-10.1-4.5-10.1-10.1c0-5.5,4.5-10,10.1-10c5.6,0,10.1,4.5,10.1,10
				C222.2,201.3,217.7,205.8,212.2,205.8L212.2,205.8z M212.2,173c-12.6,0-22.8,10.2-22.8,22.8c0,12.6,10.2,22.8,22.8,22.8
				c12.6,0,22.8-10.2,22.8-22.8C235,183.2,224.8,173,212.2,173L212.2,173z"/>
			<path class="st2" d="M59.5,205.8c-5.5,0-10-4.5-10-10.1c0-5.5,4.5-10,10-10s10,4.5,10,10C69.6,201.3,65.1,205.8,59.5,205.8
				L59.5,205.8z M59.5,173c-12.6,0-22.8,10.2-22.8,22.8c0,12.6,10.2,22.8,22.8,22.8c12.6,0,22.8-10.2,22.8-22.8
				C82.3,183.2,72.1,173,59.5,173L59.5,173z"/>
			<path class="st2" d="M274.2,110.2c0,5.6-4.8,10.1-10.7,10.1h-77.4c-5.9,0-10.7-4.5-10.7-10.1V37.5c0-5.6,4.8-10.1,10.7-10.1h77.4
				c5.9,0,10.7,4.5,10.7,10.1L274.2,110.2L274.2,110.2L274.2,110.2z M274.4,14.1h-98.7c-7.5,0-13.7,5.8-13.7,12.9v93.2
				c0,7.1,6.1,12.9,13.7,12.9h98.7c7.5,0,13.7-5.8,13.7-12.9V27C288.1,19.9,282,14.1,274.4,14.1L274.4,14.1z"/>
			<path class="st2" d="M217.6,72.5c1.3,0.3,2.8,0.4,5,0.4c8,0,12.9-4,12.9-10.8c0-6.1-4.2-9.7-11.7-9.7c-3,0-5.1,0.3-6.2,0.6
				L217.6,72.5L217.6,72.5L217.6,72.5z M202.8,42.4c4.6-0.8,11.1-1.4,20.2-1.4c9.2,0,15.8,1.8,20.2,5.3c4.2,3.3,7.1,8.8,7.1,15.3
				c0,6.5-2.2,12-6.1,15.7c-5.1,4.8-12.7,7-21.5,7c-2,0-3.7-0.1-5.1-0.3v23.7h-14.8L202.8,42.4L202.8,42.4L202.8,42.4z"/>
			<path class="st2" d="M248.2,221.2c0,6-5.2,10.9-11.7,10.9H36c-6.5,0-11.7-4.8-11.7-10.9v-49.9c0-6,5.2-10.9,11.7-10.9h200.4
				c6.5,0,11.7,4.9,11.7,10.9L248.2,221.2L248.2,221.2L248.2,221.2L248.2,221.2z M248.2,146.3H36.3l44-75.9c0,0,1.6-3.1,9-3.1h45.5
				c0,0,10.8,0.7,10.4-6.8c-0.4-4-2.6-6.7-7.3-6.7c-4.6,0-60.5,0-60.5,0s-2.9,0.1-6,5.5c-2.8,4.8-41.6,72.1-50.3,87.2
				c-6.3,1.1-11.1,7.3-11.1,14.8v68.9c0,8.3,5.9,15,13.2,15h13.2v33.1c0,4.1,2.7,7.4,6,7.4h21.3c3.2,0,6-3.3,6-7.4v-33.1h132.7v33.3
				c0,4.1,2.6,7.4,5.9,7.4h21c3.2,0,5.9-3.3,5.9-7.4v-33.3h13.2c7.3,0,13.2-6.6,13.2-15v-68.9C261.4,153,255.5,146.3,248.2,146.3
				L248.2,146.3z"/>
		</g>
	</g>
</g>
<g id="Layer_2">
	<g>
		<path class="st2" d="M122.7,193.6l6.9,17.2c-6.7,2.7-13.3,4.7-19.8,6.1l-3.8-18.2C111.4,197.6,117,195.8,122.7,193.6z M67.4,215.8
			c6.8,2,14,3,21.3,3.1l0.3-18.6c-5.7-0.1-11.2-0.9-16.4-2.4L67.4,215.8z M213.7,183.4c5.4,1.1,10.6,2.9,15.5,5.4l8.5-16.5
			c-6.5-3.4-13.4-5.8-20.5-7.1L213.7,183.4z M174.9,168.2l5.6,17.7c5.7-1.8,11.3-2.9,16.7-3.3l-1.5-18.5
			C188.9,164.6,181.9,166,174.9,168.2z M145.1,182.2c-2.1,1.3-4.1,2.5-6.1,3.6l9,16.2c2.3-1.3,4.6-2.6,6.9-4.1
			c3.2-2,6.3-3.7,9.4-5.3l-8.4-16.5C152.4,177.9,148.8,179.9,145.1,182.2z M196.4,66.4c0,7.6-1.8,14.8-5,21.1L150,168.6
			c0,0-41.7-81.7-41.9-82.1c-2.9-6.1-4.6-12.9-4.6-20.1c0-25.6,20.8-46.4,46.4-46.4C175.6,20,196.4,40.8,196.4,66.4z M177.9,66.4
			c0-15.4-12.5-27.9-27.9-27.9c-15.4,0-27.9,12.5-27.9,27.9c0,15.4,12.5,27.9,27.9,27.9C165.4,94.3,177.9,81.8,177.9,66.4z
			 M242.9,112.9h-43.6l-9.5,18.6h39.7l20,60.1l-6.4,7.1c6.8,6.2,10.4,11.8,10.4,11.9l2-1.2l17.4,52.1H27.2l18.6-55.8
			c0.7,0.5,1.2,0.9,1.9,1.3l9.9-15.7c-2.2-1.4-4-2.8-5.6-4.1l18.6-55.8h39.7c-3.9-7.7-7-13.8-9.5-18.6H57.1L1.4,280h297.1
			L242.9,112.9z"/>
	</g>
</g>
</svg>
