<?xml version="1.0" encoding="utf-8"?>
<!-- Generator: Adobe Illustrator 19.2.0, SVG Export Plug-In . SVG Version: 6.00 Build 0)  -->
<svg version="1.1" id="Layer_1" xmlns="http://www.w3.org/2000/svg" xmlns:xlink="http://www.w3.org/1999/xlink" x="0px" y="0px"
	 viewBox="0 0 800 400" style="enable-background:new 0 0 800 400;" xml:space="preserve">
<style type="text/css">
	.st0{fill:#DCDEFF;}
	.st1{fill:#7C81E8;}
	.st2{fill:#C0C6FF;}
	.st3{fill:#5BB59B;}
	.st4{opacity:0.5;fill:url(#SVGID_1_);}
	.st5{opacity:0.5;fill:url(#SVGID_2_);}
	.st6{fill:#FFFFFF;}
	.st7{fill:#524F63;}
	.st8{fill:#EEBCC5;}
	.st9{fill:#E5A3B2;}
	.st10{fill:#37354C;}
	.st11{fill:url(#SVGID_3_);}
	.st12{fill:#9092EC;}
	.st13{fill:#F7DB94;}
	.st14{fill:#9EA2F2;}
	.st15{fill:#F8FDFF;}
	.st16{fill:url(#SVGID_4_);}
	.st17{fill:#E0E4ED;}
	.st18{fill:#CEE0EA;}
	.st19{fill:none;}
</style>
<g>
	<polygon class="st0" points="594.7,291.1 594.7,230.3 546,230.3 546,111.8 512.4,111.8 512.4,212.2 471.3,212.2 471.3,230.3 
		437.7,230.3 437.7,133 397.3,133 397.3,254 358.6,254 358.6,148.5 328.3,148.5 328.3,235.5 320.7,235.5 320.7,217.4 281.3,217.4 
		281.3,253.6 266.6,253.6 266.6,127.5 233,127.5 233,291.1 	"/>
	<g>
		<path class="st1" d="M455.6,76.7l-6.1,6.1l-6.1-6.1c0,0,1.2,0.2,2.9,2.2c1,1.1,2.1,2.1,3.3,2.1c1.7,0,3.1-1.9,4.2-3.4
			C455,76.1,455.6,76.7,455.6,76.7z"/>
		<path class="st1" d="M648.2,54.9l-6.1,6.1l-6.1-6.1c0,0,1.2,0.2,2.9,2.2c1,1.1,2.1,2.1,3.3,2.1c1.7,0,3.1-1.9,4.2-3.4
			C647.5,54.3,648.2,54.9,648.2,54.9z"/>
		<path class="st1" d="M631.1,128l-6.1,6.1L619,128c0,0,1.2,0.2,2.9,2.2c1,1.1,2.1,2.1,3.3,2.1c1.7,0,3.1-1.9,4.2-3.4
			C630.5,127.4,631.1,128,631.1,128z"/>
		<path class="st1" d="M480.1,122.7l-6.1,6.1l-6.1-6.1c0,0,1.2,0.2,2.9,2.2c1,1.1,2.1,2.1,3.3,2.1c1.7,0,3.1-1.9,4.2-3.4
			C479.4,122.1,480.1,122.7,480.1,122.7z"/>
		<path class="st1" d="M337.4,76.3l-6.1,6.1l-6.1-6.1c0,0,1.2,0.2,2.9,2.2c1,1.1,2.1,2.1,3.3,2.1c1.7,0,3.1-1.9,4.2-3.4
			C336.7,75.7,337.4,76.3,337.4,76.3z"/>
		<path class="st1" d="M186.7,88.6l-6.1,6.1l-6.1-6.1c0,0,1.2,0.2,2.9,2.2c1,1.1,2.1,2.1,3.3,2.1c1.7,0,3.1-1.9,4.2-3.4
			C186.1,88,186.7,88.6,186.7,88.6z"/>
		<path class="st1" d="M361.8,58.6c0,0,4.1,0.5,5.8,1.4c0.2-0.2,4.6-2,5.8-1.9c-0.3-0.1-2.9-0.3-5.5,1.1
			C367.9,59.2,363.2,58.1,361.8,58.6z"/>
		<path class="st1" d="M405.9,69.9c0,0,4.1,0.5,5.8,1.4c0.2-0.2,4.6-2,5.8-1.9c-0.3-0.1-2.9-0.3-5.5,1.1
			C412.1,70.5,407.4,69.3,405.9,69.9z"/>
		<path class="st1" d="M559.5,76.6c0,0,4.1,0.5,5.8,1.4c0.2-0.2,4.6-2,5.8-1.9c-0.3-0.1-2.9-0.3-5.5,1.1
			C565.7,77.3,561,76.1,559.5,76.6z"/>
		<path class="st1" d="M153.8,121.5c0,0,4.1,0.5,5.8,1.4c0.2-0.2,4.6-2,5.8-1.9c-0.3-0.1-2.9-0.3-5.5,1.1
			C160,122.1,155.3,120.9,153.8,121.5z"/>
		<path class="st1" d="M476.4,96.4c0,0,4.1,0.5,5.8,1.4c0.2-0.2,4.6-2,5.8-1.9c-0.3-0.1-2.9-0.3-5.5,1.1
			C482.5,97,477.8,95.8,476.4,96.4z"/>
		<path class="st1" d="M227.7,76c0,0,4.1,0.5,5.8,1.4c0.2-0.2,4.6-2,5.8-1.9c-0.3-0.1-2.9-0.3-5.5,1.1
			C233.8,76.6,229.2,75.5,227.7,76z"/>
	</g>
	<g>
		<polygon class="st2" points="258.6,225.9 258.6,210.1 255.8,210.1 255.8,192.2 253.5,192.2 253.5,176.8 250.5,176.8 250.5,168.4 
			249.5,168.4 249.5,176.8 246.5,176.8 246.5,192.2 244.2,192.2 244.2,210.1 241.5,210.1 241.5,225.9 237.1,225.9 237.1,290.9 
			249.8,290.9 250.2,290.9 262.9,290.9 262.9,225.9 		"/>
		<polygon class="st2" points="443,211.7 443,192.5 439.7,192.5 439.7,170.7 436.8,170.7 436.8,152 433.2,152 433.2,141.8 
			432,141.8 432,152 428.4,152 428.4,170.7 425.5,170.7 425.5,192.5 422.2,192.5 422.2,211.7 416.9,211.7 416.9,290.9 432.4,290.9 
			432.9,290.9 448.3,290.9 448.3,211.7 		"/>
		<path class="st2" d="M310.5,283.9v-14.6h-4.4v-6.1h-1.7v-9.5h-2.7v-63.3h-0.5v-13.2H300v-7h-1v-2.7h-1.5v-2.6h-1.7v-1.2h-1.1v-1
			h-0.9v-1.1H293c0,0-1.1-12.2-1.1-15.2h0.4V146H292v-1.4h0.4v-0.4H292c-0.1-0.9-0.7-1.6-1.6-1.7v-2.7h0.6v-13h-0.6v-7.8H290v7.8
			h-0.6v13h0.6v2.7c-0.9,0.1-1.6,0.8-1.6,1.7H288v0.4h0.4v1.4H288v0.4h0.4c0.1,3-1.1,15.2-1.1,15.2h-0.9v1.1h-0.9v1h-1.1v1.2h-1.7
			v2.6h-1.5v2.7h-1v7H279v13.2h-0.5v63.3h-2.7v9.5h-1.7v6.1h-4.4v14.6h-6.6v7.1H290h0.3h26.8v-7.1H310.5z"/>
		<polygon class="st2" points="518.2,77.5 513.8,76.5 513.8,72 507.5,72 507.5,52.2 506.3,52.2 506.3,72 500,72 500,76.4 496,78.3 
			492.4,270.3 495.5,290.9 518.2,290.9 521.4,270.3 		"/>
		<rect x="353" y="123.1" class="st2" width="18.2" height="167.9"/>
		<polygon class="st2" points="335,184.9 335,152.3 332.8,152.3 332.8,186 324.7,190.2 324.7,195.6 316.6,195.6 316.6,290.9 
			344.7,290.9 344.7,179.9 		"/>
		<polygon class="st2" points="482.8,217.1 482.8,211.3 479,211.3 468.7,202.1 458.4,211.3 454.6,211.3 454.6,217.1 450.3,217.1 
			450.3,290.9 468.7,290.9 487.1,290.9 487.1,217.1 		"/>
		<polygon class="st2" points="547.1,208.1 547.1,194.8 543.4,194.8 543.4,189.7 541.2,189.7 540.4,189.7 540.4,180.1 539,180.1 
			539,189.7 538.2,189.7 536,189.7 536,194.8 532.3,194.8 532.3,208.1 528.3,208.1 528.3,290.9 538.2,290.9 541.2,290.9 
			551.1,290.9 551.1,208.1 		"/>
		<polygon class="st2" points="405,182.5 405,165.2 400.2,165.2 400.2,158.5 397.3,158.5 396.3,158.5 396.3,145.9 394.4,145.9 
			394.4,158.5 393.5,158.5 390.6,158.5 390.6,165.2 385.7,165.2 385.7,182.5 380.4,182.5 380.4,290.9 393.5,290.9 397.3,290.9 
			410.3,290.9 410.3,182.5 		"/>
		<rect x="558.6" y="198.5" class="st2" width="16.2" height="92.4"/>
	</g>
</g>
<g>
	<g>
		<g>
			<polygon class="st3" points="170.2,272.6 164.5,293.8 176,293.8 			"/>
			<polygon class="st3" points="211.8,276.1 206,293.8 217.6,293.8 			"/>
			<polygon class="st3" points="200.4,259 195.5,293.8 205.3,293.8 			"/>
			<polygon class="st3" points="193,267.3 188.1,293.8 197.9,293.8 			"/>
			<polygon class="st3" points="184.5,265.4 179.3,286.6 189.6,286.6 			"/>
			<polygon class="st3" points="184.5,273 179.3,294.3 189.6,294.3 			"/>
		</g>
		<g>
			<polygon class="st3" points="222.7,272.6 216.9,293.8 228.5,293.8 			"/>
			<polygon class="st3" points="264.3,276.1 258.5,293.8 270.1,293.8 			"/>
			<polygon class="st3" points="252.9,259 248,293.8 257.8,293.8 			"/>
			<polygon class="st3" points="245.5,267.3 240.6,293.8 250.4,293.8 			"/>
			<polygon class="st3" points="237,265.4 231.8,286.6 242.1,286.6 			"/>
			<polygon class="st3" points="237,273 231.8,294.3 242.1,294.3 			"/>
		</g>
		<g>
			<polygon class="st3" points="275.2,272.6 269.4,293.8 281,293.8 			"/>
			<polygon class="st3" points="316.8,276.1 311,293.8 322.6,293.8 			"/>
			<polygon class="st3" points="305.4,259 300.5,293.8 310.3,293.8 			"/>
			<polygon class="st3" points="298,267.3 293.1,293.8 302.9,293.8 			"/>
			<polygon class="st3" points="289.4,265.4 284.3,286.6 294.6,286.6 			"/>
			<polygon class="st3" points="289.4,273 284.3,294.3 294.6,294.3 			"/>
		</g>
		<g>
			<polygon class="st3" points="327.7,272.6 321.9,293.8 333.5,293.8 			"/>
			<polygon class="st3" points="369.3,276.1 363.5,293.8 375.1,293.8 			"/>
			<polygon class="st3" points="357.9,259 353,293.8 362.8,293.8 			"/>
			<polygon class="st3" points="350.5,267.3 345.6,293.8 355.4,293.8 			"/>
			<polygon class="st3" points="341.9,265.4 336.8,286.6 347.1,286.6 			"/>
			<polygon class="st3" points="341.9,273 336.8,294.3 347.1,294.3 			"/>
		</g>
		<g>
			<polygon class="st3" points="380.2,272.6 374.4,293.8 386,293.8 			"/>
			<polygon class="st3" points="421.8,276.1 416,293.8 427.6,293.8 			"/>
			<polygon class="st3" points="410.4,259 405.5,293.8 415.3,293.8 			"/>
			<polygon class="st3" points="403,267.3 398.1,293.8 407.9,293.8 			"/>
			<polygon class="st3" points="394.4,265.4 389.3,286.6 399.6,286.6 			"/>
			<polygon class="st3" points="394.4,273 389.3,294.3 399.6,294.3 			"/>
		</g>
		<g>
			<polygon class="st3" points="432.7,272.6 426.9,293.8 438.5,293.8 			"/>
			<polygon class="st3" points="474.3,276.1 468.5,293.8 480.1,293.8 			"/>
			<polygon class="st3" points="462.9,259 458,293.8 467.8,293.8 			"/>
			<polygon class="st3" points="455.5,267.3 450.5,293.8 460.4,293.8 			"/>
			<polygon class="st3" points="446.9,265.4 441.8,286.6 452.1,286.6 			"/>
			<polygon class="st3" points="446.9,273 441.8,294.3 452.1,294.3 			"/>
		</g>
		<g>
			<polygon class="st3" points="485.2,272.6 479.4,293.8 491,293.8 			"/>
			<polygon class="st3" points="526.8,276.1 521,293.8 532.6,293.8 			"/>
			<polygon class="st3" points="515.4,259 510.5,293.8 520.3,293.8 			"/>
			<polygon class="st3" points="508,267.3 503,293.8 512.9,293.8 			"/>
			<polygon class="st3" points="499.4,265.4 494.3,286.6 504.6,286.6 			"/>
			<polygon class="st3" points="499.4,273 494.3,294.3 504.6,294.3 			"/>
		</g>
		<g>
			<polygon class="st3" points="537.7,272.6 531.9,293.8 543.5,293.8 			"/>
			<polygon class="st3" points="579.3,276.1 573.5,293.8 585.1,293.8 			"/>
			<polygon class="st3" points="567.9,259 563,293.8 572.8,293.8 			"/>
			<polygon class="st3" points="560.5,267.3 555.5,293.8 565.4,293.8 			"/>
			<polygon class="st3" points="551.9,265.4 546.8,286.6 557.1,286.6 			"/>
			<polygon class="st3" points="551.9,273 546.8,294.3 557.1,294.3 			"/>
		</g>
		<g>
			<polygon class="st3" points="590.2,272.6 584.4,293.8 596,293.8 			"/>
			<polygon class="st3" points="631.8,276.1 626,293.8 637.5,293.8 			"/>
			<polygon class="st3" points="620.4,259 615.5,293.8 625.3,293.8 			"/>
			<polygon class="st3" points="612.9,267.3 608,293.8 617.9,293.8 			"/>
			<polygon class="st3" points="604.4,265.4 599.3,286.6 609.6,286.6 			"/>
			<polygon class="st3" points="604.4,273 599.3,294.3 609.6,294.3 			"/>
		</g>
	</g>
</g>
<linearGradient id="SVGID_1_" gradientUnits="userSpaceOnUse" x1="183.6971" y1="383.8113" x2="393.7161" y2="383.8113">
	<stop  offset="0" style="stop-color:#4A50C2;stop-opacity:2.000000e-002"/>
	<stop  offset="1" style="stop-color:#444BCC;stop-opacity:0.64"/>
</linearGradient>
<ellipse class="st4" cx="288.7" cy="383.8" rx="105" ry="10.3"/>
<linearGradient id="SVGID_2_" gradientUnits="userSpaceOnUse" x1="402.214" y1="383.8113" x2="612.233" y2="383.8113">
	<stop  offset="0" style="stop-color:#4A50C2;stop-opacity:2.000000e-002"/>
	<stop  offset="1" style="stop-color:#444BCC;stop-opacity:0.64"/>
</linearGradient>
<ellipse class="st5" cx="507.2" cy="383.8" rx="105" ry="10.3"/>
<g>
	<g>
		<polygon class="st6" points="345,370.8 348.4,379.6 343.4,381.5 338,370.6 343.3,369.4 		"/>
		<path class="st7" d="M342.5,379.8l25.9-8.1c0,0,1.8-0.4,2.6,1.3c0.8,1.6-26,11.6-26,11.6L342.5,379.8z"/>
		<polygon class="st8" points="345,370.8 348.4,379.6 343.4,381.5 338,370.6 343.3,369.4 		"/>
		<path class="st7" d="M342.5,379.8l25.9-8.1c0,0,1.8-0.4,2.6,1.3c0.8,1.6-26,11.6-26,11.6L342.5,379.8z"/>
		<polygon class="st7" points="368.4,106.5 359.5,108.6 354,87.4 362.9,85.2 		"/>
		<path class="st7" d="M374.6,82.5l0.7,2.9l-7,1.8l0.6,2.2l-9.5,2.4c0,0,0,0.1,0,0.2l-0.1,0c0,0,0.4,1.7,0.9,3.4
			c0.4,1.7,0.8,3.4,0.8,3.4l0.1,0c0,0.1,0.1,0.1,0.1,0.1l9.5-2.4l0.6,2.2l7-1.8l0.7,2.9l8.6-2.2l-1.3-5.3l-1.7-6.7l-1.3-5.3
			L374.6,82.5z"/>
		<path class="st9" d="M351.7,95.1c-0.9,1-1.7,2.3-1.3,3.6c0.2,0.4,0.5,0.8,0.7,1.2c0.4,0.7,0.5,1.5,0.6,2.3c0.3,1.1,0.7,2.2,1.5,3
			c0.8,0.8,1.9,1.3,3,1.1c1.3-0.3,2.2-1.4,2.8-2.6c1-2,1.4-4.3,1.5-6.5c0-1.2,0-2.5-0.6-3.5C358.2,90.1,353.6,93.2,351.7,95.1z"/>
		<polygon class="st6" points="213.6,345.8 208.3,353.6 203.8,350.6 209.6,340 213.7,343.6 		"/>
		<polygon class="st8" points="213.6,345.8 208.3,353.6 203.8,350.6 209.6,340 213.7,343.6 		"/>
		<path class="st7" d="M205.1,348l3.4,5.5l1.2,23.3c0,0,0,1.9-1.8,2.3c-1.8,0.5-6.3-27.8-6.3-27.8L205.1,348z"/>
		<polygon class="st10" points="299.1,222.9 273.4,293.6 214.2,347.7 206.6,343 253.7,286.5 264.4,221.6 		"/>
		<polygon class="st7" points="299.7,222.6 346.9,371.4 338.7,374.9 263.1,221.2 		"/>
		<polygon class="st9" points="329.2,135 305.4,134.6 311.5,149.5 339.3,146.4 360.5,97.5 352.7,101 		"/>
		<g>
			<path class="st1" d="M305.4,134.6L305.4,134.6l-26.7-0.4c-7.2-0.5-12.3,7-9.2,13.6c1.7,3.7,5.6,5.8,9.6,5.4l32.4-3.6L305.4,134.6
				z"/>
		</g>
		<path class="st8" d="M276.6,143c-4.1-1.1-8.3-1.9-12.5-2.6c4.8-14.2,0-29.6-0.2-44.6c0-1.1,0-2.2,0.5-3.2c0.7-1.4,2.3-2.2,3.8-2.5
			c6.5-1.4,13,4,15.2,10.4c2.5,7.3-3.2,10.6-4.6,18C278.4,120.3,276.2,142.9,276.6,143z"/>
		<linearGradient id="SVGID_3_" gradientUnits="userSpaceOnUse" x1="264.8835" y1="124.5942" x2="277.1397" y2="111.4301">
			<stop  offset="0" style="stop-color:#DF99AA;stop-opacity:0"/>
			<stop  offset="0.9955" style="stop-color:#E594B2"/>
		</linearGradient>
		<path class="st11" d="M280.7,112.8l-7.6-3.6l-8.3-2.5c0,0,0,0,0.3,5.5c0.1,0.7,0.2,1.5,0.2,2.2c1.2,5.4,9.3,12,12.2,14.2
			c0.5-5,0.9-9.5,1.1-10.2C279.1,116.3,279.9,114.5,280.7,112.8z"/>
		<path class="st8" d="M304.2,94.8c-1.1-1-2.6-1.5-3.8-2.4c-2.7-2.1-3.6-5.7-4.7-8.9c-4.4-12.1-19.4-19.1-28.5-12.7
			c-2.2,1.5-4.7,0.5-6.7,2.2c-1.2,1-2.3,2-3.1,3.3c-1,1.6-1.2,3.6-1.3,5.5c-0.6,12.9,6.1,25.3,15.8,33.8c3.7,3.3,8.3,6.2,13.3,6.1
			c4-0.1,7.9-2.3,10.4-5.4c1.1-1.4,1.9-3,2.6-4.6c-2.9-2.1-7.3-6.2-7.3-6.2s5.2,0.3,8.6,0.5c0-0.3,0.1-0.6,0.1-0.9
			c0.1-1.3,0.1-2.8,1-3.7c1.2-1.3,3.6-1,4.6-2.4C306.1,97.5,305.4,95.7,304.2,94.8z"/>
		<path class="st7" d="M268.4,91.8c-2,0.4-3.6,2.3-3.7,4.3c-0.1,3.5,3.8,5.7,7,7.1c-0.9,3.5-5.2,7.4-5.7,10.9
			c-2.7-3.2-1.9-6.7-4.6-9.9c-3.2-3.8-6.4-7.6-8.7-12c-2.3-4.4-2.9-4.1-1.9-8.9c1.5-7.4,8.2-13,15.5-14.9c7.3-1.9,15.2-0.5,22.3,2.1
			c1,0.4,2,0.8,2.5,1.7c0.4,0.8,0.3,1.8,0.2,2.7c-0.6,5.3-0.3,5.8-3.5,10.1c-1.1,1.5-2.7,2.7-4.3,3.8c-2.4,1.6-5.8,4.2-8.6,4.7
			C272.3,94,271.3,91.3,268.4,91.8z"/>
		<ellipse transform="matrix(0.9775 -0.2108 0.2108 0.9775 -12.8084 64.132)" class="st7" cx="294.4" cy="92.1" rx="0.7" ry="2.1"/>
		<path class="st12" d="M263,221.5l37.4,1.9c0,0,4.9-39.4-2.8-63.6c-6.1-17.1-34.5-28.4-34.5-28.4L263,221.5z"/>
		<g>
			<path class="st7" d="M262,158.8h-3.7v-8.9c0-8.6,7-15.7,15.7-15.7c8.6,0,15.7,7,15.7,15.7H286c0-6.6-5.4-12-12-12s-12,5.4-12,12
				V158.8z"/>
		</g>
		<polygon class="st8" points="329.2,145.9 305.4,145.6 311.5,160.5 339.3,157.4 360.5,108.5 352.7,111.9 		"/>
		<path class="st13" d="M250.3,123.5h-15.1c-8,0-14.6,6.6-14.6,14.6v58.7c0,8,6.6,14.6,14.6,14.6h15.1c8,0,14.6-6.6,14.6-14.6v-58.7
			C264.9,130.1,258.3,123.5,250.3,123.5z"/>
		<path class="st7" d="M220.5,164.4v32.5c0,8,6.6,14.6,14.6,14.6h15.1c8,0,14.6-6.6,14.6-14.6v-32.5H220.5z"/>
		<path class="st13" d="M229.5,169.2v14.3c0,6.9,5.6,12.6,12.6,12.6l0,0c6.9,0,12.6-5.6,12.6-12.6v-14.3H229.5z"/>
		<rect x="232.3" y="171.9" class="st7" width="19.8" height="1.5"/>
		<path class="st7" d="M233.8,138.7v9.4c0,4.6,3.7,8.3,8.3,8.3l0,0c4.6,0,8.3-3.7,8.3-8.3v-9.4H233.8z"/>
		<g>
			<path class="st7" d="M258.5,193.6l-1-3.5c0.1,0,6.8-2,13.2-7c8.4-6.5,12.4-14.9,11.8-24.9l3.6-0.2
				C287.7,184.9,258.8,193.5,258.5,193.6z"/>
		</g>
		<rect x="235.6" y="140.5" class="st13" width="13" height="1"/>
		<g>
			<path class="st7" d="M263.7,167.1c-1,0-1.8-0.8-1.8-1.8v-27.1c0-7.1-5.7-12.8-12.8-12.8H234c-7.1,0-12.8,5.7-12.8,12.8
				c0,1-0.8,1.8-1.8,1.8c-1,0-1.8-0.8-1.8-1.8c0-9.1,7.4-16.5,16.5-16.5h15.1c9.1,0,16.5,7.4,16.5,16.5v27.1
				C265.5,166.3,264.7,167.1,263.7,167.1z"/>
		</g>
		<path class="st7" d="M221.5,148.4h-1.2c-3,0-5.5-2.5-5.5-5.5v-5h6.7V148.4z"/>
		<g>
			<path class="st14" d="M305.4,145.6L305.4,145.6l-26.7-0.4c-7.2-0.5-12.3,7-9.2,13.6c1.7,3.7,5.6,5.8,9.6,5.4l32.4-3.6
				L305.4,145.6z"/>
		</g>
		<path class="st8" d="M351.2,114.4c0,0,2.8-6,3.7-11.5c0.1-0.6-2.8-3.9-2.7-4.5c0.5-3.4,2.2-3.7,2.8-3.8c1.1-0.3,1.1-5.5,1-8.1
			c0-0.9,0.7-1.5,1.5-1.6l0,0c0.8,0,1.4,0.5,1.5,1.3l1.2,6.9l3.5-0.4c0,0,4,0.2,4.7,2.2c1.1,3.4-2.8,12.6-2.8,12.6l-4.9,2.8
			L351.2,114.4z"/>
	</g>
	<g>
		<path class="st15" d="M517.3,132.8l-1.7,2.8c0,0-6.9-3-7-3.5c-0.1-0.5-0.8-3.7-0.8-3.7l2.4-0.1L517.3,132.8z"/>
		<path class="st7" d="M508,145.7c1.1,1.3,2.2,2.9,1.6,4.4c-0.4,1.1-1.4,1.8-2,2.8c-1.3,2.3,0.5,5.2,0.5,7.9c0,0.3,0,0.6-0.3,0.9
			c-0.4,0.4-1,0.2-1.5,0c-4.2-1.7-8.2-4.1-12.6-5.4c-3.8-1.1-7.8-1.5-11.4-3.2c-1.2-0.6-2.4-1.4-3-2.6c-1.5-2.6,0-5.9,1.9-8.2
			c2.6-3.1,6-5.5,9.7-6.8C499.4,132.5,503.4,140.2,508,145.7z"/>
		<polygon class="st8" points="466.4,388.3 493.8,389.1 474,382.4 517.6,233.8 485.3,225.8 		"/>
		<path class="st8" d="M494.7,157.1c-4.2-1.1-8.4-2-12.7-2.6c4.9-14.3,0-29.9-0.2-45.1c0-1.1,0-2.2,0.5-3.2c0.7-1.4,2.3-2.2,3.8-2.5
			c6.6-1.4,13.2,4.1,15.3,10.5c2.5,7.4-0.2,12-1.5,19.4C499.6,135.3,494.3,157,494.7,157.1z"/>
		<path class="st8" d="M522.9,130c-0.3-0.6-0.9-1.1-1.4-1.5c-0.5-0.4-1.1-0.8-1.6-1.2c0.4-4.1,3.7-9.7,2.6-15.2
			c-0.4-2.1-2.4-8.5-3.9-10c-25.9-23.9-31.9,25.4-31.9,25.4l0,2.9c0,2.9,1.7,5.5,4.3,6.7c7.1,3.4,17.1,10,19.8,8.3
			c1.2-0.8,2.7-2.1,4.1-4.1c-3.5-3.3-5-9.6-5-9.9c0-0.3,5.3,2.1,8.4,3.4c0.3-0.9,0.6-2,0.9-3c0.8,0.1,1.6,0.1,2.4,0.2
			c0.4,0,0.8,0,1.1-0.2C523.1,131.5,523.2,130.6,522.9,130z"/>
		<linearGradient id="SVGID_4_" gradientUnits="userSpaceOnUse" x1="496.2332" y1="124.9907" x2="520.5568" y2="106.2129">
			<stop  offset="0" style="stop-color:#DF99AA;stop-opacity:0"/>
			<stop  offset="0.9955" style="stop-color:#E594B2"/>
		</linearGradient>
		<path class="st16" d="M520.2,115.9c-0.7-2.3-3.2-1.4-5.3-1c0.6-1,1.2-2,1.7-3.1c5.6-11.3-6.7-11-13.4-5.4c-4,3.4-6.5,8.6-6.6,13.9
			c0,1.6,0.1,3.2,0,4.7c-0.2,1.6-0.6,3.2-1.4,4.7c1,0.2,2-0.1,2.8-0.8c0.2,0.9,0.1,1.8-0.2,2.6c4.3-2.3,8.8-7.3,12.1-10.9
			c0.6,0.7,4.7,1.7,5.4,2.3C516.8,124.1,520.3,116.1,520.2,115.9z"/>
		<path class="st9" d="M495.2,166.7l-33,41.5l-8.4,38.6l-6.1-2.5l4.9-40.9l27.1-41.7c0.7-2.5,2.4-4.5,4.8-5.4l0,0
			C491.1,153.4,497.8,159.9,495.2,166.7z"/>
		<g>
			<polygon class="st15" points="581,128.6 589,137.3 571.8,192.2 564.9,181.7 			"/>
			<polygon class="st17" points="589,137.3 600.4,150.8 595.7,140.4 581,128.6 			"/>
			<polygon class="st17" points="571.8,192.2 575.3,189.2 589,137.3 			"/>
			<polygon class="st2" points="575.3,189.2 579.2,192.8 589,137.3 			"/>
			<polygon class="st18" points="589,137.3 594.2,151.5 599.3,153.4 600.4,150.8 			"/>
			<polygon class="st17" points="599.3,153.4 589,137.3 600.4,150.8 			"/>
		</g>
		<path class="st7" d="M493.3,116c-2.1-0.3-4.2,1.1-4.9,3c-1.2,3.4,1.9,6.7,4.6,9c-2,3.1-7.6,1.6-9.2,4.8
			c-1.6-3.9-11.3-16.9-12.1-21.8c-0.8-4.9,4.5-8.2,7-12.6c3.7-6.7,11.9-10,19.6-9.6c7.6,0.5,14.7,4.2,20.8,8.9
			c0.8,0.6,1.7,1.4,1.9,2.4c0.2,0.9-0.3,1.8-0.6,2.6c-2.2,4.9-2.1,5.5-6.5,8.6c-1.6,1.1-3.5,1.8-5.3,2.3c-2.7,0.8-6.6,6.2-9.5,5.8
			C496.4,119.3,496.3,116.3,493.3,116z"/>
		<path class="st15" d="M481,236.5l37.8,1.9c0,0-6.8-21.3-7.2-31.5c-0.4-9.5,5.1-29.6,2.6-37.8c-6.2-17.3-33.1-23.7-33.1-23.7
			l0,60.7L481,236.5z"/>
		<g>
			<path class="st8" d="M527.2,173.3L527.2,173.3l-20.6-12.4c-5.4-3.6-12.8-0.1-13.3,6.4c-0.3,3.6,1.7,7.1,5,8.6l26.9,11.8
				L527.2,173.3z"/>
		</g>
		<polygon class="st9" points="541,373.3 535.4,306.2 510.5,222.8 490.3,260.5 518.8,308.7 538.4,384.6 555.3,366.1 		"/>
		<path class="st8" d="M545.5,184.4l-18.4-11l-2,14.4l18.6,8.2c2.8,1.2,6,0.9,8.5-0.9l34.8-25.6l-7.7-0.8L545.5,184.4z"/>
		<circle class="st8" cx="582.3" cy="165.2" r="6.8"/>
		<path class="st12" d="M512,207.6l-31.3-0.4l-15.8,68.6c0,0,21.2,12.9,33.2,14.4c12,1.5,31.2-11.6,31.2-11.6L512,207.6z"/>
		<path class="st7" d="M520.9,114.7l-0.9,1.3c0,0-2.7-2.3-6.6-1.1c-3.9,1.2-4.9,1.7-4.9,1.7s5.6-3.9,7.4-4
			C517.6,112.5,520.9,114.7,520.9,114.7z"/>
		
			<ellipse transform="matrix(0.3117 -0.9502 0.9502 0.3117 239.4892 574.3403)" class="st7" cx="516.2" cy="121.9" rx="2.1" ry="0.8"/>
		<g>
			<path class="st7" d="M439.6,286.2l-2.9-0.9l12.7-34.9c0.3-0.8,1.1-1.2,1.9-1l0,0c0.8,0.3,1.2,1.1,1,1.9L439.6,286.2z"/>
			<path class="st13" d="M425.4,370l-23.7-7.7c-5.4-1.7-8.3-7.5-6.5-12.8l23.4-72.1c1.7-5.4,7.5-8.3,12.8-6.5l23.7,7.7
				c5.4,1.7,8.3,7.5,6.5,12.8l-23.4,72.1C436.5,368.8,430.8,371.7,425.4,370z"/>
			
				<rect x="378.8" y="318.8" transform="matrix(0.3087 -0.9512 0.9512 0.3087 -9.1641 627.1789)" class="st7" width="96.2" height="2.3"/>
			<path class="st7" d="M453.6,252.9l-6-2c-0.6-0.2-1-0.9-0.8-1.5l2.2-6.7c0.2-0.6,0.9-1,1.5-0.8l6,2c0.6,0.2,1,0.9,0.8,1.5
				l-2.2,6.7C454.8,252.7,454.2,253.1,453.6,252.9z"/>
			
				<ellipse transform="matrix(0.3087 -0.9512 0.9512 0.3087 -66.7505 657.6062)" class="st7" cx="419" cy="374.7" rx="6.4" ry="6.4"/>
		</g>
		<circle class="st9" cx="449" cy="245" r="6.3"/>
		<path class="st7" d="M490.6,147.2c0.1,5.3,6.3,9.8,4.3,14.7c-1,2.6-4,3.8-6.7,4.6c-3.9,1-7.8,1.6-11.8,1.7
			c-3.9,0.1-8.5-0.7-10.1-4.2c-1.9-4.2,1.7-8.8,1.7-13.4c-0.1-7.4-9.4-11.6-10.8-18.8c-0.8-4,1.2-8.3,4.4-10.8
			c2.4-1.8,5.5-3,6.8-5.7c0.9-1.9,0.7-4.2,1.2-6.3c0.8-3.1,3.3-5.4,5.6-7.5c2.7-2.5,5.6-5,9.2-5.9c4.9-1.1,9.9,1.2,14.2,3.7
			c1.3,0.7,2.6,1.6,3.2,2.9c1.5,3-1.3,6.6-4.4,7.9c-6.4,2.7-18.9,6.1-9.8,13.9c2.6,2.3,6.2,3,7.2,6.5
			C496.7,136.6,490.5,141.4,490.6,147.2z"/>
		<path class="st7" d="M464.7,131.3c-0.3,2.2-0.5,4.7-1.9,6.4c-2.5,2.9-8,2.8-9.2,6.4c-0.5,1.5,0,3.3,0.8,4.7
			c1.3,2.4,3.4,4.4,5.5,6.2c5.3,4.4,12.1,8,19,6.7c0.9-0.2,1.8-0.4,2.5-1c0.6-0.5,0.9-1.2,1.3-2c4-9.4,0.6-21.4-7.8-27.2
			c-1.8-1.3-4.7-3.8-6.9-4.4C465.3,126.5,465,129.2,464.7,131.3z"/>
		<rect x="480.7" y="205.2" class="st7" width="31.3" height="4.4"/>
		<path class="st7" d="M466.1,383.8l-0.7,4.5l28.4,0.8c0,0-7.9-3.5-8.3-3.3c-0.4,0.1-3.9,1.3-5.9,1.3
			C477.7,387,466.1,383.8,466.1,383.8z"/>
		<polygon class="st7" points="535.6,378.6 538.4,384.6 556.3,366.5 554.5,365.2 550.5,368 548.5,372 		"/>
		<path class="st7" d="M491.8,137.2c3,2.1,5,5.7,4.8,9.3c-0.1,3.6-2.6,7.2-6.1,8.3c-1.7,0.6-3.6,0.5-5.4,0.5
			c-3.2-0.1-6.8-0.4-8.8-2.8c-1.6-1.9-1.7-4.7-1.4-7.2c0.4-3.2,1.4-6.3,2.9-9.1c1.2-2.2,3.3-5.3,6.2-4c1.3,0.6,2.4,1.9,3.6,2.7
			C489,135.6,490.5,136.3,491.8,137.2z"/>
		<path class="st7" d="M507.7,119.2c-0.9,1.4-1.9,2.7-3.1,3.8c-2.2,1.9-5,2.8-7.8,3.6c2.8-1.2,5.1-3.7,6.1-6.5
			c-1.2,1.4-2.9,2.4-4.7,2.6c2.8-4.4,5.6-8.8,8.5-13.2c0.8-1.2,1.6-2.5,2.9-3.1c1.5-0.7,5.4-1.1,6.9-0.4c-0.6,2.1-2.9,4.5-4.1,6.4
			C510.9,114.6,509.3,116.9,507.7,119.2z"/>
		<g>
			<path class="st7" d="M452.5,131.8c-0.5-4.9,3.2-9,6.6-11c3.2-1.9,6.8-2.8,10.3-3.7c0.7-0.2,1.5-0.4,2.2-0.6c4-1.1,8.5-2.7,11.6-6
				l0.2,0.2c-3.1,3.4-7.6,5-11.7,6.1c-0.7,0.2-1.5,0.4-2.2,0.6c-3.5,0.9-7.1,1.8-10.2,3.7c-3.2,1.9-6.9,5.9-6.4,10.7L452.5,131.8z"
				/>
		</g>
		<g>
			<path class="st7" d="M454.6,119.2l-0.3-0.1c0.6-1.7,1.4-3.6,3.1-4.4c1.1-0.5,2.4-0.4,3.7-0.3l0.3,0c2.9,0.3,5.7,0.2,8.6-0.3
				c1.7-0.3,3.6-0.7,4.9-2l0.2,0.2c-1.4,1.3-3.3,1.8-5,2.1c-2.9,0.5-5.8,0.6-8.6,0.3l-0.3,0c-1.2-0.1-2.4-0.2-3.5,0.3
				C456,115.7,455.2,117.5,454.6,119.2z"/>
		</g>
		<path class="st19" d="M506,125.6c-0.2,0.3-0.4,0.6-0.3,1c0.1,0.6,0.6,1,1.1,1.2c1.3,0.6,2.7,0.9,4.1,0.8c0.2,0,0.4,0,0.6-0.1
			c0.2-0.1,0.3-0.2,0.5-0.4c0.5-0.6,0.7-1.5,0.4-2.3C511.4,123.3,507.4,123.6,506,125.6z"/>
	</g>
</g>
<circle class="st13" cx="577" cy="25.1" r="18.2"/>
</svg>
