<?xml version="1.0" encoding="utf-8"?>
<!-- Generator: Adobe Illustrator 19.2.0, SVG Export Plug-In . SVG Version: 6.00 Build 0)  -->
<svg version="1.1" id="Layer_1" xmlns="http://www.w3.org/2000/svg" xmlns:xlink="http://www.w3.org/1999/xlink" x="0px" y="0px"
	 viewBox="0 0 300 300" style="enable-background:new 0 0 300 300;" xml:space="preserve">
<style type="text/css">
	.st0{fill:#56A0CB;}
</style>
<g>
	<g>
		<path class="st0" d="M212.2,205.8c-5.5,0-10.1-4.5-10.1-10.1c0-5.5,4.5-10,10.1-10c5.6,0,10.1,4.5,10.1,10
			C222.2,201.3,217.7,205.8,212.2,205.8L212.2,205.8z M212.2,173c-12.6,0-22.8,10.2-22.8,22.8c0,12.6,10.2,22.8,22.8,22.8
			c12.6,0,22.8-10.2,22.8-22.8C235,183.2,224.8,173,212.2,173L212.2,173z"/>
		<path class="st0" d="M59.5,205.8c-5.5,0-10-4.5-10-10.1c0-5.5,4.5-10,10-10s10,4.5,10,10C69.6,201.3,65.1,205.8,59.5,205.8
			L59.5,205.8z M59.5,173c-12.6,0-22.8,10.2-22.8,22.8c0,12.6,10.2,22.8,22.8,22.8c12.6,0,22.8-10.2,22.8-22.8
			C82.3,183.2,72.1,173,59.5,173L59.5,173z"/>
		<path class="st0" d="M274.2,110.2c0,5.6-4.8,10.1-10.7,10.1h-77.4c-5.9,0-10.7-4.5-10.7-10.1V37.5c0-5.6,4.8-10.1,10.7-10.1h77.4
			c5.9,0,10.7,4.5,10.7,10.1L274.2,110.2L274.2,110.2L274.2,110.2z M274.4,14.1h-98.7c-7.5,0-13.7,5.8-13.7,12.9v93.2
			c0,7.1,6.1,12.9,13.7,12.9h98.7c7.5,0,13.7-5.8,13.7-12.9V27C288.1,19.9,282,14.1,274.4,14.1L274.4,14.1z"/>
		<path class="st0" d="M217.6,72.5c1.3,0.3,2.8,0.4,5,0.4c8,0,12.9-4,12.9-10.8c0-6.1-4.2-9.7-11.7-9.7c-3,0-5.1,0.3-6.2,0.6
			L217.6,72.5L217.6,72.5L217.6,72.5z M202.8,42.4c4.6-0.8,11.1-1.4,20.2-1.4c9.2,0,15.8,1.8,20.2,5.3c4.2,3.3,7.1,8.8,7.1,15.3
			c0,6.5-2.2,12-6.1,15.7c-5.1,4.8-12.7,7-21.5,7c-2,0-3.7-0.1-5.1-0.3v23.7h-14.8L202.8,42.4L202.8,42.4L202.8,42.4z"/>
		<path class="st0" d="M248.2,221.2c0,6-5.2,10.9-11.7,10.9H36c-6.5,0-11.7-4.8-11.7-10.9v-49.9c0-6,5.2-10.9,11.7-10.9h200.4
			c6.5,0,11.7,4.9,11.7,10.9L248.2,221.2L248.2,221.2L248.2,221.2L248.2,221.2z M248.2,146.3H36.3l44-75.9c0,0,1.6-3.1,9-3.1h45.5
			c0,0,10.8,0.7,10.4-6.8c-0.4-4-2.6-6.7-7.3-6.7c-4.6,0-60.5,0-60.5,0s-2.9,0.1-6,5.5c-2.8,4.8-41.6,72.1-50.3,87.2
			c-6.3,1.1-11.1,7.3-11.1,14.8v68.9c0,8.3,5.9,15,13.2,15h13.2v33.1c0,4.1,2.7,7.4,6,7.4h21.3c3.2,0,6-3.3,6-7.4v-33.1h132.7v33.3
			c0,4.1,2.6,7.4,5.9,7.4h21c3.2,0,5.9-3.3,5.9-7.4v-33.3h13.2c7.3,0,13.2-6.6,13.2-15v-68.9C261.4,153,255.5,146.3,248.2,146.3
			L248.2,146.3z"/>
	</g>
</g>
</svg>
