<?xml version="1.0" encoding="utf-8"?>
<!-- Generator: Adobe Illustrator 19.2.0, SVG Export Plug-In . SVG Version: 6.00 Build 0)  -->
<svg version="1.1" id="Layer_1" xmlns="http://www.w3.org/2000/svg" xmlns:xlink="http://www.w3.org/1999/xlink" x="0px" y="0px"
	 viewBox="0 0 800 400" style="enable-background:new 0 0 800 400;" xml:space="preserve">
<style type="text/css">
	.st0{fill:#56A0CB;}
	.st1{fill:#83DE49;}
	.st2{fill:#B77840;}
	.st3{fill:#48A100;}
	.st4{opacity:0.44;fill:#48A100;enable-background:new    ;}
	.st5{fill:#FFFFFF;}
	.st6{fill:#40404A;}
	.st7{fill:#F84D09;}
	.st8{fill:#F84F06;}
</style>
<g>
	<path class="st0" d="M71.5,298.9l12.4-24.3l-1.7-8.6l23.5-64.6l33.2-51.6L158,86.1l18-11.2l58.3-34.7l37.7,9l-1.5,17l1.4-9.9
		l20.7-1.6l33.9-27.4l48-19.2l51.9,19.9l21.1,40.6l-4.1,9.2l8.8-3.1l31.5,15.1l6.4-6.9l24.4-3.8l28.6,32.1l11.9,12.4L576,131
		l25-17.7l35.6,10.5l13.7,27.4l34.4,12.5l20.7,22.7l-11.5,14.9l-5.3-2.8l-15.2,47.7l-49.5,3.8l-10.5-4.6l-93.8,18.8l-46.5,23.9l3,2
		l-32.7,18.7l-9.6,0.5l-9,11.6l-4.9-0.2c-10-0.4-26.1-1.1-28.5-1.2c-2.6,0.1-20.8,1.5-32,2.4l-2.4,0.2l-25.4-10.9l-26.2-25.5
		l-14.6-11.4l-43.4-7.7l1.3-10.5l-5.6,8l-10.1-3.7l-13.8,5.8l-6-5.2l-3.7,4.9l-30.9,4.1l-15.3,19.9l-14.6-14.6l7,14.6l-20.5,5.1
		l-3.6,15.3l-23.4,8.7l-39,60.7L71.5,298.9z"/>
	<path class="st1" d="M679.2,171.8l-35.8-12.9l-13.6-27.1l-27.1-8l-25.3,17.8l-27.8-9.9l-13.6-14.2l-25.3-28.3l-16,2.5l-14.8,16
		v-9.2l-28.4-13.6L443,88l-23.4,19.7l17.3-38.8l-17.3-33.4l-45-17.3l-43.2,17.3l-35.1,28.4l-16,1.2l-2.5,17.3L246.3,107l12.9-23.4
		l2.5-27.1l-25.9-6.2l-54.9,32.7l-14.8,9.2l-18.5,61.7l-33.3,51.8l-22.2,61.1l1.8,9.2L81,301.3l-1.2,44.4l22.2-34.5l21.6-8l3.7-16
		l14.8-3.7l-22.2-46.3l15.4,9.2l17.3-9.9l-9.9,19.1l19.7,19.7l8-10.5l-3.7-22.8l14.2,17.9l23.4-3.1l7.4-9.9l9.2,8l11.7-4.9l6.8,2.5
		l23.4-33.3l-4.9,39.5l27.8,4.9l1.2-12.9l10.5,16.7l14.2,11.1l25.3,24.6l21.6,9.2c0,0,31.5-2.5,32.7-2.5c1.2,0,29,1.2,29,1.2
		l8.7-11.1l11.7-0.6l17.3-9.9l-25.3-16.7l16-21.6l1.8,20.9l9.9,11.7l56.2-29l98-19.7l11.1,5l40.7-3.1l16.7-52.4l15.4,8L679.2,171.8z
		"/>
	<path class="st0" d="M152.8,347.9l6.6-7.6l-0.4-0.8l-8.3-0.6l-15.5-32l9.4-11.8l38.8-29.5l33.7-3.6l6.8-6.4l28.5,11.6l6,10.8
		l31.7,21.1L264,309.5l-17.6,15.9l-4.3-1.1l-35.3,13.9c1.7,5.8,1.6,8.5,0.3,11.3c-0.8,1.8-2.2,3.2-3.8,4.3
		c-3.1,2.5-16.9,16.1-29.1,28.2l-12.9,13.1L152.8,347.9z"/>
	<path class="st1" d="M151.3,302l35.8-27.1l17.3-1.8l-17.9,22.8l10.5,3.1l13.6-14.8l16,10.5l-9.9-19.1l9.2-8.7l19.7,8l5.5,9.9
		l18.5,12.4l-18.5,7.4l-9.9-1.2l8.7,6.2l-6.2,5.5l-9.2-2.5l-13.6-8l0.6,4.9l10.5,8.7l-26.5,10.5l-6.2-12.4l-7.4-5.5l-8.7,1.8l6.8,8
		c0,0,9.9,24.6,8,25.3c-1.8,0.6-30.8,29.6-30.8,29.6l-4.3-24.6l8-9.2l-6.2-11.1l-8-0.6l-10.5-21.6L151.3,302z"/>
	<polygon class="st0" points="339.7,314.2 392.8,307.6 457.4,329.5 405.8,362.9 379.7,367.2 	"/>
	<polygon class="st1" points="435.6,332.2 402.3,353.8 383.8,356.8 357.2,321.7 391.8,317.4 	"/>
	<polygon class="st0" points="307.2,375.8 292.2,377 256.7,362.6 250,336.2 268.7,336.2 288.9,334.6 297.4,327.7 321.3,339.3 
		345.7,368.7 318.6,380.1 	"/>
	<polygon class="st1" points="269.1,345.8 292.5,343.9 298.7,338.9 315.4,347 330.1,364.9 318.4,369.8 308.5,366.1 293.8,367.3 
		264.7,355.6 262.3,345.8 	"/>
	<polygon class="st0" points="673.2,125.7 666.3,78.7 696.6,79.5 708.9,58.5 764,88.1 758.5,141.3 707.5,170.7 	"/>
	<polygon class="st1" points="710.1,158.3 682.3,121.8 677.4,88.6 702.1,89.2 712.5,71.3 753.8,93.5 749.5,135.4 	"/>
	<path class="st0" d="M552,112.9l-29.4-24.2l13-13c2-2,4.6-3,7.8-3c4.6,0,14.6,2.5,18.7,3.6l0.8,0.2l16.3,7.6l6.7-3.4l38,1.6
		l16.9,38.6h-40.2l-24.6,8.5L552,112.9z"/>
	<path class="st1" d="M536.7,88l20.9,17.3l19.7,13.6l21.6-7.4h27.1l-8.7-19.7l-29.6-1.2l-8.7,4.3l-19.7-9.2c0,0-16-4.3-17.3-3.1
		C541,83.6,536.7,88,536.7,88z"/>
	<polygon class="st0" points="647.6,114.7 632.4,92.5 662.3,61.2 668.8,80.8 683.4,91.5 673.7,126.6 	"/>
	<polygon class="st1" points="658.3,79.3 660.7,86.7 672.4,95.4 667.5,113.3 653.9,107.1 644.7,93.5 	"/>
</g>
<g>
	<path class="st2" d="M609.9,219.3L609.9,219.3c-1.1,0-2.2-1-2.2-2.2v-16.3c0-1.1,1-2.2,2.2-2.2l0,0c1.1,0,2.2,1,2.2,2.2v16.3
		C612,218.4,611.1,219.3,609.9,219.3z"/>
	<ellipse class="st3" cx="609.9" cy="185.5" rx="11" ry="17.7"/>
</g>
<path class="st4" d="M213.9,177.6h-26.7c-2.6,0-4.8,2.2-4.8,4.8l0,0c0,2.6,2.2,4.8,4.8,4.8h26.7c2.6,0,4.8-2.2,4.8-4.8l0,0
	C218.6,179.7,216.5,177.6,213.9,177.6z"/>
<path class="st4" d="M390.4,269.9h-26.7c-2.6,0-4.8,2.2-4.8,4.8l0,0c0,2.6,2.2,4.8,4.8,4.8h26.7c2.6,0,4.8-2.2,4.8-4.8l0,0
	C395.1,272,393,269.9,390.4,269.9z"/>
<path class="st4" d="M392.1,86.5h-26.7c-2.6,0-4.8,2.2-4.8,4.8l0,0c0,2.6,2.2,4.8,4.8,4.8h26.7c2.6,0,4.8-2.2,4.8-4.8l0,0
	C396.8,88.7,394.7,86.5,392.1,86.5z"/>
<path class="st4" d="M659.8,186.7H633c-2.6,0-4.8,2.2-4.8,4.8l0,0c0,2.6,2.2,4.8,4.8,4.8h26.7c2.6,0,4.8-2.2,4.8-4.8l0,0
	C664.6,188.9,662.5,186.7,659.8,186.7z"/>
<path class="st4" d="M583.7,228.3h-40.4c-1.8,0-3.4,1.5-3.4,3.4l0,0c0,1.8,1.5,3.4,3.4,3.4h40.4c1.8,0,3.4-1.5,3.4-3.4l0,0
	C587.1,229.8,585.5,228.3,583.7,228.3z"/>
<path class="st4" d="M629.8,145.8h-34.1c-1.6,0-2.9,1.3-2.9,2.9l0,0c0,1.6,1.3,2.9,2.9,2.9h34.1c1.6,0,2.9-1.3,2.9-2.9l0,0
	C632.7,147.2,631.4,145.8,629.8,145.8z"/>
<path class="st4" d="M532.9,127.8h-35.7c-1.6,0-2.9,1.3-2.9,2.9l0,0c0,1.6,1.3,2.9,2.9,2.9h35.7c1.6,0,2.9-1.3,2.9-2.9l0,0
	C535.8,129.1,534.4,127.8,532.9,127.8z"/>
<path class="st4" d="M395.3,111.9h-45.2c-1.6,0-2.9,1.3-2.9,2.9l0,0c0,1.6,1.3,2.9,2.9,2.9h45.2c1.6,0,2.9-1.3,2.9-2.9l0,0
	C398.2,113.3,396.8,111.9,395.3,111.9z"/>
<path class="st4" d="M248.6,139h-45.2c-1.6,0-2.9,1.3-2.9,2.9l0,0c0,1.6,1.3,2.9,2.9,2.9h45.2c1.6,0,2.9-1.3,2.9-2.9l0,0
	C251.4,140.2,250.1,139,248.6,139z"/>
<path class="st4" d="M531.5,214.2h-30c-2.6,0-4.8,2.2-4.8,4.8l0,0c0,2.6,2.2,4.8,4.8,4.8h30c2.6,0,4.8-2.2,4.8-4.8l0,0
	C536.3,216.3,534.1,214.2,531.5,214.2z"/>
<path class="st4" d="M480.8,141.8h-30c-2.6,0-4.8,2.2-4.8,4.8l0,0c0,2.6,2.2,4.8,4.8,4.8h30c2.6,0,4.8-2.2,4.8-4.8l0,0
	C485.6,143.9,483.4,141.8,480.8,141.8z"/>
<path class="st4" d="M332.9,247.8h-30c-2.6,0-4.8,2.2-4.8,4.8l0,0c0,2.6,2.2,4.8,4.8,4.8h30c2.6,0,4.8-2.2,4.8-4.8l0,0
	C337.7,250,335.5,247.8,332.9,247.8z"/>
<path class="st4" d="M191.1,120.1h-30c-2.6,0-4.8,2.2-4.8,4.8l0,0c0,2.6,2.2,4.8,4.8,4.8h30c2.6,0,4.8-2.2,4.8-4.8l0,0
	C195.8,122.2,193.7,120.1,191.1,120.1z"/>
<g>
	<rect x="500.2" y="157.7" class="st5" width="31.8" height="61.4"/>
	<rect x="500.2" y="151.7" class="st6" width="31.8" height="6"/>
	<g>
		<g>
			<rect x="503.5" y="162.1" class="st7" width="5.2" height="6.2"/>
			<rect x="513" y="162.1" class="st7" width="5.2" height="6.2"/>
			<rect x="522.5" y="162.1" class="st7" width="5.2" height="6.2"/>
		</g>
		<g>
			<rect x="503.5" y="172.9" class="st7" width="5.2" height="6.2"/>
			<rect x="513" y="172.9" class="st7" width="5.2" height="6.2"/>
			<rect x="522.5" y="172.9" class="st7" width="5.2" height="6.2"/>
		</g>
		<g>
			<rect x="503.5" y="183.7" class="st7" width="5.2" height="6.2"/>
			<rect x="513" y="183.7" class="st7" width="5.2" height="6.2"/>
			<rect x="522.5" y="183.7" class="st7" width="5.2" height="6.2"/>
		</g>
		<g>
			<rect x="503.5" y="194.5" class="st7" width="5.2" height="6.2"/>
			<rect x="513" y="194.5" class="st7" width="5.2" height="6.2"/>
			<rect x="522.5" y="194.5" class="st7" width="5.2" height="6.2"/>
		</g>
		<g>
			<rect x="503.5" y="205.2" class="st7" width="5.2" height="6.2"/>
			<rect x="513" y="205.2" class="st7" width="5.2" height="6.2"/>
			<rect x="522.5" y="205.2" class="st7" width="5.2" height="6.2"/>
		</g>
	</g>
</g>
<g>
	<rect x="449.7" y="85.3" class="st5" width="31.8" height="61.4"/>
	<rect x="449.7" y="79.3" class="st6" width="31.8" height="6"/>
	<g>
		<g>
			<rect x="453.1" y="89.7" class="st7" width="5.2" height="6.2"/>
			<rect x="462.5" y="89.7" class="st7" width="5.2" height="6.2"/>
			<rect x="472" y="89.7" class="st7" width="5.2" height="6.2"/>
		</g>
		<g>
			<rect x="453.1" y="100.5" class="st7" width="5.2" height="6.2"/>
			<rect x="462.5" y="100.5" class="st7" width="5.2" height="6.2"/>
			<rect x="472" y="100.5" class="st7" width="5.2" height="6.2"/>
		</g>
		<g>
			<rect x="453.1" y="111.3" class="st7" width="5.2" height="6.2"/>
			<rect x="462.5" y="111.3" class="st7" width="5.2" height="6.2"/>
			<rect x="472" y="111.3" class="st7" width="5.2" height="6.2"/>
		</g>
		<g>
			<rect x="453.1" y="122.1" class="st7" width="5.2" height="6.2"/>
			<rect x="462.5" y="122.1" class="st7" width="5.2" height="6.2"/>
			<rect x="472" y="122.1" class="st7" width="5.2" height="6.2"/>
		</g>
		<g>
			<rect x="453.1" y="132.9" class="st7" width="5.2" height="6.2"/>
			<rect x="462.5" y="132.9" class="st7" width="5.2" height="6.2"/>
			<rect x="472" y="132.9" class="st7" width="5.2" height="6.2"/>
		</g>
	</g>
</g>
<g>
	<rect x="301.7" y="191.9" class="st5" width="31.8" height="61.4"/>
	<rect x="301.7" y="185.9" class="st6" width="31.8" height="6"/>
	<g>
		<g>
			<rect x="305.2" y="196.3" class="st7" width="5.2" height="6.2"/>
			<rect x="314.7" y="196.3" class="st7" width="5.2" height="6.2"/>
			<rect x="324.1" y="196.3" class="st7" width="5.2" height="6.2"/>
		</g>
		<g>
			<rect x="305.2" y="207.1" class="st7" width="5.2" height="6.2"/>
			<rect x="314.7" y="207.1" class="st7" width="5.2" height="6.2"/>
			<rect x="324.1" y="207.1" class="st7" width="5.2" height="6.2"/>
		</g>
		<g>
			<rect x="305.2" y="217.9" class="st7" width="5.2" height="6.2"/>
			<rect x="314.7" y="217.9" class="st7" width="5.2" height="6.2"/>
			<rect x="324.1" y="217.9" class="st7" width="5.2" height="6.2"/>
		</g>
		<g>
			<rect x="305.2" y="228.7" class="st7" width="5.2" height="6.2"/>
			<rect x="314.7" y="228.7" class="st7" width="5.2" height="6.2"/>
			<rect x="324.1" y="228.7" class="st7" width="5.2" height="6.2"/>
		</g>
		<g>
			<rect x="305.2" y="239.5" class="st7" width="5.2" height="6.2"/>
			<rect x="314.7" y="239.5" class="st7" width="5.2" height="6.2"/>
			<rect x="324.1" y="239.5" class="st7" width="5.2" height="6.2"/>
		</g>
	</g>
</g>
<g>
	<rect x="160.2" y="63.9" class="st5" width="31.8" height="61.4"/>
	<rect x="160.2" y="57.9" class="st6" width="31.8" height="6"/>
	<g>
		<g>
			<rect x="163.6" y="68.4" class="st7" width="5.2" height="6.2"/>
			<rect x="173.1" y="68.4" class="st7" width="5.2" height="6.2"/>
			<rect x="182.5" y="68.4" class="st7" width="5.2" height="6.2"/>
		</g>
		<g>
			<rect x="163.6" y="79.1" class="st7" width="5.2" height="6.2"/>
			<rect x="173.1" y="79.1" class="st7" width="5.2" height="6.2"/>
			<rect x="182.5" y="79.1" class="st7" width="5.2" height="6.2"/>
		</g>
		<g>
			<rect x="163.6" y="90" class="st7" width="5.2" height="6.2"/>
			<rect x="173.1" y="90" class="st7" width="5.2" height="6.2"/>
			<rect x="182.5" y="90" class="st7" width="5.2" height="6.2"/>
		</g>
		<g>
			<rect x="163.6" y="100.8" class="st7" width="5.2" height="6.2"/>
			<rect x="173.1" y="100.8" class="st7" width="5.2" height="6.2"/>
			<rect x="182.5" y="100.8" class="st7" width="5.2" height="6.2"/>
		</g>
		<g>
			<rect x="163.6" y="111.5" class="st7" width="5.2" height="6.2"/>
			<rect x="173.1" y="111.5" class="st7" width="5.2" height="6.2"/>
			<rect x="182.5" y="111.5" class="st7" width="5.2" height="6.2"/>
		</g>
	</g>
</g>
<g>
	<polygon class="st5" points="394.9,65.7 394.9,91.4 362.6,91.4 362.6,65.7 378.7,58.5 	"/>
	<polygon class="st5" points="399.3,61.6 399.3,67.7 378.7,58.5 358.1,67.7 358.1,61.6 378.7,52.5 	"/>
	<polygon class="st6" points="394.9,65.7 394.9,67.7 378.7,60.5 362.6,67.7 362.6,65.7 378.7,58.5 	"/>
	<rect x="373" y="75.5" class="st8" width="12.1" height="15.9"/>
</g>
<g>
	<polygon class="st5" points="392.3,249.8 392.3,274.1 361.8,274.1 361.8,249.8 377,242.9 	"/>
	<polygon class="st5" points="396.6,245.9 396.6,251.7 377,242.9 357.5,251.7 357.5,245.9 377,237.2 	"/>
	<polygon class="st6" points="392.3,249.8 392.3,251.7 377,244.8 361.8,251.7 361.8,249.8 377,242.9 	"/>
	<rect x="371.6" y="259" class="st8" width="11.5" height="15.1"/>
</g>
<g>
	<polygon class="st5" points="662.2,166.5 662.2,190.9 631.6,190.9 631.6,166.5 646.9,159.7 	"/>
	<polygon class="st5" points="666.5,162.7 666.5,168.4 646.9,159.7 627.4,168.4 627.4,162.7 646.9,154 	"/>
	<polygon class="st6" points="662.2,166.5 662.2,168.4 646.9,161.6 631.6,168.4 631.6,166.5 646.9,159.7 	"/>
	<rect x="641.5" y="175.8" class="st8" width="11.5" height="15.1"/>
</g>
<g>
	<polygon class="st5" points="214.6,161.1 214.6,182.8 187.4,182.8 187.4,161.1 201,155 	"/>
	<polygon class="st5" points="218.4,157.6 218.4,162.7 201,155 183.6,162.7 183.6,157.6 201,149.9 	"/>
	<polygon class="st6" points="214.6,161.1 214.6,162.8 201,156.7 187.4,162.8 187.4,161.1 201,155 	"/>
	<rect x="196.2" y="169.3" class="st8" width="10.3" height="13.4"/>
</g>
<g>
	<path class="st4" d="M489.5,239.3h-59.8c-1.4,0-2.5,1.1-2.5,2.5l0,0c0,1.4,1.1,2.5,2.5,2.5h59.8c1.4,0,2.5-1.1,2.5-2.5l0,0
		C492,240.5,490.9,239.3,489.5,239.3z"/>
	<g>
		<path class="st5" d="M490.1,223.6v14.1h-61.6v-13.2c0-2,0.7-3.8,1.9-5.2c0.1-0.1,0.2-0.3,0.3-0.3c1.5-1.5,3.5-2.5,5.8-2.5h46.3
			C486.9,216.6,490.1,219.8,490.1,223.6z"/>
		<rect x="428.5" y="230.2" class="st8" width="61.6" height="7.6"/>
		<rect x="451.5" y="219.4" class="st6" width="8.1" height="9.1"/>
		<rect x="438.3" y="219.4" class="st6" width="3.5" height="9.1"/>
		<rect x="461.3" y="219.4" class="st6" width="8.1" height="9.1"/>
		<rect x="470.9" y="219.4" class="st6" width="8.1" height="9.1"/>
		<rect x="444.1" y="219.4" class="st6" width="5.9" height="17.4"/>
		<rect x="480.9" y="219.4" class="st6" width="5.9" height="17.4"/>
		<circle class="st6" cx="438.4" cy="238.5" r="4.8"/>
		<circle class="st5" cx="438.4" cy="238.5" r="2.4"/>
		<g>
			<circle class="st6" cx="473.1" cy="238.5" r="4.8"/>
			<circle class="st5" cx="473.1" cy="238.5" r="2.4"/>
		</g>
		<path class="st6" d="M430.5,219.3C430.5,219.4,430.5,219.4,430.5,219.3c-1.2,1.5-2,3.2-2,5.2v3.9h5.5c1.7,0,3.1-1.3,3.1-3.1v-6.1
			L430.5,219.3L430.5,219.3z"/>
	</g>
</g>
<g>
	<path class="st4" d="M214.4,221h-59.8c-1.4,0-2.5,1.1-2.5,2.5l0,0c0,1.4,1.1,2.5,2.5,2.5h59.8c1.4,0,2.5-1.1,2.5-2.5l0,0
		C216.9,222.1,215.8,221,214.4,221z"/>
	<g>
		<path class="st5" d="M215,205.3v14.1h-61.6v-13.2c0-2,0.7-3.8,1.9-5.2c0.1-0.1,0.2-0.3,0.3-0.3c1.5-1.5,3.5-2.5,5.8-2.5h46.3
			C211.8,198.2,215,201.4,215,205.3z"/>
		<rect x="153.5" y="211.9" class="st8" width="61.6" height="7.6"/>
		<rect x="176.4" y="201" class="st6" width="8.1" height="9.1"/>
		<rect x="163.2" y="201" class="st6" width="3.5" height="9.1"/>
		<rect x="186.2" y="201" class="st6" width="8.1" height="9.1"/>
		<rect x="195.8" y="201" class="st6" width="8.1" height="9.1"/>
		<rect x="169" y="201" class="st6" width="5.9" height="17.4"/>
		<rect x="205.8" y="201" class="st6" width="5.9" height="17.4"/>
		<circle class="st6" cx="163.3" cy="220.2" r="4.8"/>
		<circle class="st5" cx="163.3" cy="220.2" r="2.4"/>
		<g>
			<circle class="st6" cx="198" cy="220.2" r="4.8"/>
			<circle class="st5" cx="198" cy="220.2" r="2.4"/>
		</g>
		<path class="st6" d="M155.4,201C155.4,201,155.4,201,155.4,201c-1.2,1.5-2,3.2-2,5.2v3.9h5.5c1.7,0,3.1-1.3,3.1-3.1V201L155.4,201
			L155.4,201z"/>
	</g>
</g>
<ellipse class="st4" cx="240" cy="220" rx="8.3" ry="3.2"/>
<ellipse class="st4" cx="124.4" cy="211.6" rx="8.3" ry="3.2"/>
<ellipse class="st4" cx="320.1" cy="129.2" rx="8.3" ry="3.2"/>
<ellipse class="st4" cx="444.2" cy="205.6" rx="8.3" ry="3.2"/>
<ellipse class="st4" cx="568.3" cy="165.4" rx="8.3" ry="3.2"/>
<ellipse class="st4" cx="610.1" cy="218.3" rx="8.3" ry="3.2"/>
<ellipse class="st4" cx="700.2" cy="143.7" rx="7.6" ry="3"/>
<ellipse class="st4" cx="695" cy="113.4" rx="8.3" ry="3.2"/>
<g>
	<path class="st2" d="M443.1,205.8L443.1,205.8c-1.3,0-2.4-1-2.4-2.4v-17.9c0-1.3,1-2.4,2.4-2.4l0,0c1.3,0,2.4,1,2.4,2.4v17.9
		C445.5,204.7,444.4,205.8,443.1,205.8z"/>
	<ellipse class="st3" cx="443.1" cy="168.8" rx="12" ry="19.4"/>
</g>
<g>
	<path class="st2" d="M699.1,145.6L699.1,145.6c-1,0-2-0.9-2-2v-14.9c0-1,0.9-2,2-2l0,0c1,0,2,0.9,2,2v14.9
		C701.1,144.8,700.2,145.6,699.1,145.6z"/>
	<ellipse class="st3" cx="699.1" cy="114.7" rx="10" ry="16.2"/>
</g>
<g>
	<path class="st2" d="M320,130.4h-0.3c-1.3,0-2.4-1-2.4-2.4v-19c0-1.3,1-2.4,2.4-2.4h0.3c1.3,0,2.4,1,2.4,2.4v19
		C322.4,129.4,321.3,130.4,320,130.4z"/>
	<ellipse class="st3" cx="319.9" cy="91.5" rx="12.6" ry="20.4"/>
</g>
<g>
	<path class="st2" d="M124.9,213.1h-0.5c-1.3,0-2.4-1-2.4-2.4v-20.5c0-1.3,1-2.4,2.4-2.4h0.5c1.3,0,2.4,1,2.4,2.4v20.6
		C127.3,212.1,126.2,213.1,124.9,213.1z"/>
	<ellipse class="st3" cx="124.7" cy="171.8" rx="13.4" ry="21.6"/>
</g>
<g>
	<polygon class="st3" points="226.9,196.5 230.6,196.5 225.3,207.5 254.2,207.5 248.9,196.5 252.6,196.5 246.1,183 245.9,182.5 
		248.6,182.5 244.2,172.2 239.7,162 235.3,172.2 230.9,182.5 233.5,182.5 233.4,183 	"/>
	<path class="st2" d="M240,221h-0.5c-1.2,0-2.2-1-2.2-2.2v-11.3h5v11.3C242.3,220,241.2,221,240,221z"/>
</g>
<ellipse class="st4" cx="173.2" cy="319.3" rx="8.3" ry="3.2"/>
<g>
	<polygon class="st3" points="160.1,295.8 163.8,295.8 158.5,306.9 187.3,306.9 182,295.8 185.7,295.8 179.3,282.3 179,281.8 
		181.7,281.8 177.3,271.5 172.9,261.3 168.5,271.5 164.1,281.8 166.8,281.8 166.5,282.3 	"/>
	<path class="st2" d="M173.2,320.4h-0.5c-1.2,0-2.2-1-2.2-2.2v-11.3h5v11.3C175.4,319.3,174.4,320.4,173.2,320.4z"/>
</g>
<g>
	<polygon class="st3" points="556.9,144.4 560.2,144.4 555.4,154.5 581.7,154.5 577,144.4 580.3,144.4 574.5,132.1 574.2,131.7 
		576.6,131.7 572.6,122.3 568.6,112.9 564.5,122.3 560.5,131.7 562.9,131.7 562.8,132.1 	"/>
	<path class="st2" d="M568.6,166.8L568.6,166.8c-1.3,0-2.3-1-2.3-2.2v-10.1h4.6v10.1C570.9,165.8,569.9,166.8,568.6,166.8z"/>
</g>
<g>
	<polygon class="st3" points="683.3,93.1 686.6,93.1 681.9,103.2 708.2,103.2 703.4,93.1 706.8,93.1 700.9,80.8 700.7,80.3 
		703.1,80.3 699.1,71 695.1,61.6 691,71 687,80.3 689.4,80.3 689.2,80.8 	"/>
	<path class="st2" d="M695.1,115.5H695c-1.2,0-2.2-1-2.2-2.2v-10.1h4.6v10.1C697.3,114.5,696.3,115.5,695.1,115.5z"/>
</g>
<path class="st3" d="M249.3,142.5c0-0.1,0-0.1,0-0.2c0-6.2-5.1-11.3-11.3-11.3c-1.3,0-2.5,0.2-3.7,0.6c-2-2.9-5.4-4.7-9.2-4.7
	c-4.3,0-8,2.4-9.9,5.9c-0.3,0-0.5-0.1-0.7-0.1c-5,0-9.1,4.1-9.1,9.1c0,0.3,0,0.5,0.1,0.7L249.3,142.5L249.3,142.5z"/>
<path class="st4" d="M143.8,227.9h-30.1c-1.1,0-1.9,0.9-1.9,1.9l0,0c0,1.1,0.9,1.9,1.9,1.9h30.1c1.1,0,1.9-0.9,1.9-1.9l0,0
	C145.7,228.8,144.9,227.9,143.8,227.9z"/>
<path class="st3" d="M144.3,230.2c0-0.1,0-0.1,0-0.1c0-4.2-3.4-7.6-7.6-7.6c-0.8,0-1.7,0.1-2.4,0.4c-1.4-1.9-3.6-3.1-6.1-3.1
	c-2.9,0-5.3,1.6-6.6,3.9c-0.2,0-0.3,0-0.5,0c-3.4,0-6,2.7-6,6c0,0.2,0,0.3,0,0.5L144.3,230.2L144.3,230.2z"/>
<path class="st3" d="M394,114.9c0-0.1,0-0.1,0-0.2c0-6.2-5.1-11.3-11.3-11.3c-1.3,0-2.5,0.2-3.7,0.6c-2-2.9-5.4-4.7-9.2-4.7
	c-4.3,0-8,2.4-9.9,5.9c-0.3,0-0.5-0.1-0.7-0.1c-5,0-9.1,4.1-9.1,9.1c0,0.3,0,0.5,0.1,0.7L394,114.9L394,114.9z"/>
<path class="st3" d="M532.1,130.8c0-0.1,0-0.1,0-0.2c0-4.9-4-8.9-8.9-8.9c-1,0-2,0.2-2.9,0.5c-1.6-2.2-4.3-3.7-7.3-3.7
	c-3.4,0-6.3,1.8-7.8,4.6c-0.2,0-0.4,0-0.6,0c-3.9,0-7.2,3.2-7.2,7.2c0,0.2,0,0.4,0,0.6L532.1,130.8L532.1,130.8z"/>
<path class="st3" d="M627.9,149.5c0-0.1,0-0.1,0-0.1c0-4.5-3.6-8.1-8.1-8.1c-0.9,0-1.8,0.1-2.6,0.4c-1.5-2-3.9-3.4-6.6-3.4
	c-3.1,0-5.7,1.7-7.1,4.2c-0.2,0-0.3,0-0.5,0c-3.6,0-6.5,2.9-6.5,6.5c0,0.2,0,0.3,0,0.5L627.9,149.5L627.9,149.5z"/>
<path class="st3" d="M584.6,231.8c0-0.1,0-0.1,0-0.2c0-5.7-4.6-10.4-10.4-10.4c-1.1,0-2.3,0.2-3.4,0.6c-1.9-2.6-5-4.3-8.4-4.3
	c-3.9,0-7.3,2.2-9,5.3c-0.2,0-0.4-0.1-0.6-0.1c-4.6,0-8.3,3.7-8.3,8.3c0,0.3,0,0.4,0,0.6L584.6,231.8L584.6,231.8z"/>
<path class="st4" d="M406.1,206.6h-40.4c-1.8,0-3.4,1.5-3.4,3.4l0,0c0,1.8,1.5,3.4,3.4,3.4h40.4c1.8,0,3.4-1.5,3.4-3.4l0,0
	C409.5,208.1,407.9,206.6,406.1,206.6z"/>
<path class="st4" d="M401.3,169H288.4c-1.8,0-3.4,1.5-3.4,3.4l0,0c0,1.8,1.5,3.4,3.4,3.4h112.9c1.8,0,3.4-1.5,3.4-3.4l0,0
	C404.7,170.5,403.1,169,401.3,169z"/>
<path class="st3" d="M407,210.1c0-0.1,0-0.1,0-0.2c0-5.7-4.6-10.4-10.4-10.4c-1.1,0-2.3,0.2-3.4,0.6c-1.9-2.6-5-4.3-8.4-4.3
	c-3.9,0-7.3,2.2-9,5.3c-0.2,0-0.4-0.1-0.6-0.1c-4.6,0-8.3,3.7-8.3,8.3c0,0.3,0,0.4,0,0.6L407,210.1L407,210.1z"/>
<g>
	<polygon class="st5" points="404.2,160.7 398.4,171.2 290.4,171.2 284.6,160.7 286.1,158.8 294.8,148.3 298.2,144.1 390.5,144.1 
		394,148.3 402.6,158.8 	"/>
	<polygon class="st6" points="287.9,166.7 290.4,171.2 398.4,171.2 400.9,166.7 	"/>
	<polygon class="st8" points="401.8,165 404,161 284.7,161 287,165 	"/>
	<polygon class="st6" points="392.6,146.6 390.5,144.1 298.2,144.1 296.2,146.6 	"/>
	<path class="st6" d="M304.8,148.3v2c0,4.8-3.8,8.6-8.6,8.6h-10.1l8.7-10.6H304.8z"/>
	<path class="st6" d="M402.6,158.8h-9.8c-4.8,0-8.6-3.9-8.6-8.6v-2h9.7L402.6,158.8z"/>
	<rect x="307.6" y="148.2" class="st6" width="6.1" height="11.3"/>
	<rect x="340.5" y="148.2" class="st6" width="6.1" height="11.3"/>
	<rect x="316.5" y="148.2" class="st6" width="9.5" height="8.1"/>
	<rect x="328.4" y="148.2" class="st6" width="9.5" height="8.1"/>
	<rect x="373.5" y="148.2" class="st6" width="6.1" height="11.3"/>
	<rect x="349.5" y="148.2" class="st6" width="9.5" height="8.1"/>
	<rect x="361.5" y="148.2" class="st6" width="9.5" height="8.1"/>
</g>
<g>
	<ellipse class="st4" cx="223.6" cy="118.9" rx="5.6" ry="2.1"/>
	<g>
		<polygon class="st6" points="225.3,119 224.9,90.1 222.7,90.1 222.2,119 		"/>
		<ellipse class="st5" cx="223.7" cy="79.2" rx="1.7" ry="8.4"/>
		<ellipse transform="matrix(0.866 -0.5 0.5 0.866 -17.8956 120.223)" class="st5" cx="215.4" cy="93.5" rx="8.4" ry="1.7"/>
		<ellipse transform="matrix(0.5 -0.866 0.866 0.5 35.1285 247.4895)" class="st5" cx="231.9" cy="93.3" rx="1.7" ry="8.4"/>
		<path class="st5" d="M223.7,85.9c-1.5,0-2.6,1.3-2.8,2.8c-0.2,1.5,1.1,2.7,2.8,2.8c1.5,0.1,2.8-1.3,2.8-2.8
			C226.5,87.2,225.2,85.9,223.7,85.9z M223.7,89.7c-0.6,0-1-0.4-1-1c0-0.6,0.4-1,1-1c0.6,0,1,0.4,1,1
			C224.7,89.3,224.2,89.7,223.7,89.7z"/>
	</g>
</g>
<g>
	<ellipse class="st4" cx="419.3" cy="155.5" rx="5.6" ry="2.1"/>
	<g>
		<polygon class="st6" points="421,155.6 420.5,126.7 418.3,126.7 417.9,155.6 		"/>
		<ellipse class="st5" cx="419.4" cy="115.7" rx="1.7" ry="8.4"/>
		<ellipse transform="matrix(0.866 -0.5 0.5 0.866 -9.9861 222.9545)" class="st5" cx="411" cy="130.1" rx="8.4" ry="1.7"/>
		<ellipse transform="matrix(0.5 -0.866 0.866 0.5 101.2562 435.1778)" class="st5" cx="427.5" cy="129.9" rx="1.7" ry="8.4"/>
		<path class="st5" d="M419.3,122.5c-1.5,0-2.6,1.3-2.8,2.8c-0.2,1.5,1.1,2.7,2.8,2.8c1.5,0.1,2.8-1.3,2.8-2.8
			C422.1,123.7,420.8,122.5,419.3,122.5z M419.3,126.2c-0.6,0-1-0.4-1-1s0.4-1,1-1c0.6,0,1,0.4,1,1
			C420.3,125.8,419.9,126.2,419.3,126.2z"/>
	</g>
</g>
<g>
	<ellipse class="st4" cx="280.2" cy="232" rx="5" ry="1.9"/>
	<g>
		<polygon class="st6" points="281.7,232.1 281.4,206 279.3,206 278.9,232.1 		"/>
		<ellipse class="st5" cx="280.3" cy="196.1" rx="1.5" ry="7.6"/>
		<ellipse transform="matrix(0.866 -0.5 0.5 0.866 -67.9847 164.3869)" class="st5" cx="272.8" cy="209.1" rx="7.6" ry="1.5"/>
		<ellipse transform="matrix(0.5 -0.866 0.866 0.5 -37.0821 353.5736)" class="st5" cx="287.7" cy="208.9" rx="1.5" ry="7.6"/>
		<path class="st5" d="M280.3,202.1c-1.4,0-2.4,1.1-2.5,2.5c-0.2,1.3,1,2.5,2.5,2.5c1.4,0.1,2.5-1.1,2.5-2.5
			C282.8,203.3,281.6,202.1,280.3,202.1z M280.3,205.6c-0.5,0-0.9-0.4-0.9-0.9s0.4-0.9,0.9-0.9c0.5,0,0.9,0.4,0.9,0.9
			C281.2,205.2,280.7,205.6,280.3,205.6z"/>
	</g>
</g>
<g>
	<ellipse class="st4" cx="550.6" cy="204.7" rx="5" ry="1.9"/>
	<g>
		<polygon class="st6" points="552.2,204.8 551.7,178.6 549.8,178.6 549.3,204.8 		"/>
		<ellipse class="st5" cx="550.7" cy="168.7" rx="1.5" ry="7.6"/>
		<ellipse transform="matrix(0.866 -0.5 0.5 0.866 -18.0789 295.9115)" class="st5" cx="543.1" cy="181.7" rx="7.6" ry="1.5"/>
		<ellipse transform="matrix(0.5 -0.866 0.866 0.5 121.8495 574.0639)" class="st5" cx="558.1" cy="181.5" rx="1.5" ry="7.6"/>
		<path class="st5" d="M550.7,174.8c-1.4,0-2.4,1.1-2.5,2.5c-0.2,1.3,1,2.5,2.5,2.5c1.4,0.1,2.5-1.1,2.5-2.5
			C553.2,175.9,552.1,174.8,550.7,174.8z M550.7,178.3c-0.5,0-0.9-0.4-0.9-0.9s0.4-0.9,0.9-0.9c0.5,0,0.9,0.4,0.9,0.9
			C551.6,177.8,551.2,178.3,550.7,178.3z"/>
	</g>
</g>
<g>
	<ellipse class="st4" cx="412.3" cy="296.9" rx="5" ry="1.9"/>
	<g>
		<polygon class="st6" points="413.8,297.1 413.4,270.9 411.4,270.9 411,297.1 		"/>
		<ellipse class="st5" cx="412.4" cy="261" rx="1.5" ry="7.6"/>
		<ellipse transform="matrix(0.866 -0.5 0.5 0.866 -82.739 239.0972)" class="st5" cx="404.8" cy="273.9" rx="7.6" ry="1.5"/>
		<ellipse transform="matrix(0.5 -0.866 0.866 0.5 -27.2136 500.3691)" class="st5" cx="419.7" cy="273.8" rx="1.5" ry="7.6"/>
		<path class="st5" d="M412.3,267.1c-1.4,0-2.4,1.1-2.5,2.5c-0.2,1.3,1,2.5,2.5,2.5c1.4,0.1,2.5-1.1,2.5-2.5
			S413.7,267.1,412.3,267.1z M412.3,270.5c-0.5,0-0.9-0.4-0.9-0.9c0-0.5,0.4-0.9,0.9-0.9c0.5,0,0.9,0.4,0.9,0.9
			C413.2,270.1,412.8,270.5,412.3,270.5z"/>
	</g>
</g>
<g>
	<ellipse class="st4" cx="394.9" cy="343.3" rx="5" ry="1.9"/>
	<g>
		<polygon class="st6" points="396.4,343.4 396,317.3 394,317.3 393.6,343.4 		"/>
		<ellipse class="st5" cx="395" cy="307.4" rx="1.5" ry="7.6"/>
		<ellipse transform="matrix(0.866 -0.5 0.5 0.866 -108.2671 236.6313)" class="st5" cx="387.4" cy="320.3" rx="7.6" ry="1.5"/>
		<ellipse transform="matrix(0.5 -0.866 0.866 0.5 -76.0657 508.5296)" class="st5" cx="402.4" cy="320.1" rx="1.5" ry="7.6"/>
		<path class="st5" d="M394.9,313.4c-1.4,0-2.4,1.1-2.5,2.5c-0.2,1.3,1,2.5,2.5,2.5c1.4,0.1,2.5-1.1,2.5-2.5
			C397.4,314.6,396.3,313.4,394.9,313.4z M394.9,316.9c-0.5,0-0.9-0.4-0.9-0.9s0.4-0.9,0.9-0.9c0.5,0,0.9,0.4,0.9,0.9
			S395.4,316.9,394.9,316.9z"/>
	</g>
</g>
<g>
	<ellipse class="st4" cx="232.6" cy="300" rx="5.3" ry="2"/>
	<g>
		<polygon class="st6" points="234.2,300.1 233.8,272.4 231.7,272.4 231.3,300.1 		"/>
		<ellipse class="st5" cx="232.7" cy="261.8" rx="1.6" ry="8.1"/>
		<ellipse transform="matrix(0.866 -0.5 0.5 0.866 -107.6894 149.2723)" class="st5" cx="224.7" cy="275.6" rx="8.1" ry="1.6"/>
		<ellipse transform="matrix(0.5 -0.866 0.866 0.5 -118.225 345.9817)" class="st5" cx="240.5" cy="275.4" rx="1.6" ry="8.1"/>
		<path class="st5" d="M232.7,268.2c-1.5,0-2.5,1.2-2.7,2.7c-0.2,1.4,1,2.6,2.7,2.7c1.5,0.1,2.7-1.2,2.7-2.7
			S234.1,268.2,232.7,268.2z M232.7,271.9c-0.5,0-1-0.4-1-1c0-0.5,0.4-1,1-1s1,0.4,1,1C233.6,271.5,233.2,271.9,232.7,271.9z"/>
	</g>
</g>
<g>
	<ellipse class="st4" cx="99.8" cy="305" rx="6.8" ry="2.5"/>
	<g>
		<polygon class="st6" points="101.8,305.1 101.3,270.1 98.6,270.1 98.1,305.1 		"/>
		<ellipse class="st5" cx="99.9" cy="256.8" rx="2" ry="10.3"/>
		<ellipse transform="matrix(0.866 -0.5 0.5 0.866 -125.0817 81.6018)" class="st5" cx="89.7" cy="274.2" rx="10.2" ry="2"/>
		<ellipse transform="matrix(0.5 -0.866 0.866 0.5 -182.3611 232.0659)" class="st5" cx="109.8" cy="274" rx="2" ry="10.2"/>
		<path class="st5" d="M99.8,264.9c-1.8,0-3.2,1.5-3.4,3.4c-0.3,1.8,1.3,3.3,3.4,3.4c1.8,0.1,3.4-1.5,3.4-3.4
			S101.7,264.9,99.8,264.9z M99.8,269.5c-0.7,0-1.2-0.6-1.2-1.2c0-0.7,0.6-1.2,1.2-1.2c0.7,0,1.2,0.6,1.2,1.2
			C101.1,269,100.5,269.5,99.8,269.5z"/>
	</g>
</g>
</svg>
