<?xml version="1.0" encoding="utf-8"?>
<!-- Generator: Adobe Illustrator 19.2.0, SVG Export Plug-In . SVG Version: 6.00 Build 0)  -->
<svg version="1.1" id="Layer_1" xmlns="http://www.w3.org/2000/svg" xmlns:xlink="http://www.w3.org/1999/xlink" x="0px" y="0px"
	 viewBox="0 0 496.2 496.2" style="enable-background:new 0 0 496.2 496.2;" xml:space="preserve">
<style type="text/css">
	.st0{fill:#56A0CB;}
	.st1{fill:#261D17;}
	.st2{fill:#969899;}
	.st3{fill:#7F3E09;}
	.st4{fill:#E2A176;}
	.st5{fill:#F3FAFF;}
	.st6{fill:#F4B382;}
	.st7{fill:#F4C4A4;}
	.st8{fill:#F4CCB0;}
</style>
<path class="st0" d="M248.1,0C111.1,0,0,111.1,0,248.1c0,137,111.1,248.1,248.1,248.1c137,0,248.1-111.1,248.1-248.1
	C496.2,111.1,385.1,0,248.1,0z"/>
<path class="st1" d="M394.8,382.7c-7.3-27.3-69.9-49.3-147.1-49.3s-139.1,22.1-146.4,49.3c-3.3,12.2-7,35.2-10.1,57.5
	c42.7,34.9,97.4,55.9,156.9,55.9c59.5,0,114.1-21,156.9-55.9C401.8,417.9,398.1,394.9,394.8,382.7z"/>
<polygon class="st2" points="247.8,317 208.3,322.2 210.2,335.4 247.8,363.5 286,335.4 287.9,322.2 "/>
<path class="st3" d="M247.8,317l-37.7,18.4c0,0,16.8,28.1,37.6,28.1s38.2-28.1,38.2-28.1L247.8,317z"/>
<path class="st1" d="M247.8,352.7c-20.4,0-30.6-8.5-34.9-13.6l35.3,50.9l35.8-51.8C280,343.2,269.5,352.7,247.8,352.7z M212.9,339.2
	l-2.6-3.8C210.2,335.4,211,337,212.9,339.2z M283.9,338.3c1.4-1.7,2-2.9,2-2.9L283.9,338.3z"/>
<path class="st4" d="M287,282.1h-77.8c12.1,36.6,1,53.3,1,53.3l26.9,17.3h22l26.9-17.3C286,335.4,274.8,318.7,287,282.1z"/>
<g>
	<path class="st5" d="M287.9,322.2l-39.8,30.5c0,0,34,6,34.2,5.8l23.5-20.8L287.9,322.2z"/>
	<path class="st5" d="M208.3,322.2l-17.9,15.5l23.5,20.8c0.2,0.2,34.2-5.8,34.2-5.8L208.3,322.2z"/>
</g>
<path class="st6" d="M248.1,61.6c-48.7,0-88.3,21.2-88.3,113.6c0,31.3,6.2,55.8,15.5,74.7c20.4,41.6,55.7,56.1,72.8,56.1
	s52.4-14.5,72.8-56.1c9.3-18.9,15.5-43.4,15.5-74.7C336.3,82.7,296.8,61.6,248.1,61.6z"/>
<g>
	<path class="st1" d="M349.7,153.1c0,0,8-15.5-12.4-29c0,0,10.2-2,11.7,2.7c0,0-5.1-25-20.4-31.7c0,0,6.6-2,15.3,6.8
		c0,0-3.6-18.9-25.5-25c0,0,4.4-2,11.7,1.4c0,0-5.8-12.2-24-16.2c0,0-1.5-6.1,6.6-5.4c0,0-16-7.4-31.3-8.1c0,0,5.1-10.8,13.8-10.8
		c0,0-21.1-6.1-35.7,2c0,0-8-3.4-2.9-6.1c0,0-39.3-1.4-41.5,19.6c0,0-10.9-0.7-20.4-5.4c0,0-9.5,6.8-0.7,14.9
		c0,0-22.6,0.7-32.8,16.9c0,0,5.1-2,11.7-1.4c0,0-17.5,8.8-19.7,23.6c0,0,5.1-2,10.9-1.4c0,0-10.2,6.1-14.6,18.2c0,0,4.4-1.4,10.9-2
		c0,0-22.6,17.6-22.6,42.6c0,0,8.7-13.5,13.8-13.5c0,0-2.9,21.6,2.9,45.9c0,0,3.6-11.5,7.3-10.8c0,0-0.7,18.9,10.9,31.7
		c0,0,0-43.9,8-44.6c0,0,4.4,6.1,9.5,10.1c0,0-9.5-53.4,13.8-57.4c0,0,7.3,39.9,35.7,45.3c0,0-9.5-28.4-8.7-39.2
		c0,0,30.6,14.2,40.1,42.6c0,0,3.6-15.5-1.5-39.2c0,0,15.3,8.1,13.8,35.1c0,0,11.7-4.7,12.4-20.3c0,0,9.5,14.9,5.1,30.4
		c0,0,2.2,3.4,6.6-4.1c0,0,17.7,8.7,16.7,37.1c0,0,18.5-23.4,12.8-47.3c0,0,5.2,12.8,4.5,21.6c0,0,4.7-19.6-0.4-42.6
		C340.9,140.3,347.5,145.7,349.7,153.1z"/>
	<path class="st1" d="M212.1,179c-16.8,0-30.3,2.9-30.3,23.8c0,13.2,7.5,26.4,30.3,26.4c16.8,0,30.3-13.2,30.3-26.4
		C242.4,189.7,228.8,179,212.1,179z M212.1,224c-18.1,0-24.1-10.5-24.1-20.9c0-16.6,10.8-18.9,24.1-18.9c13.3,0,24.1,8.5,24.1,18.9
		S225.4,224,212.1,224z"/>
</g>
<path class="st7" d="M212.1,184.2c-13.3,0-24.1,2.3-24.1,18.9c0,10.4,6,20.9,24.1,20.9c13.3,0,24.1-10.5,24.1-20.9
	S225.4,184.2,212.1,184.2z"/>
<path class="st8" d="M212.1,184.2c-13.3,0-24.1,2.3-24.1,18.9c0,8.8,4.2,17.5,16.2,20.1l14.4-38.3
	C216.6,184.4,214.4,184.2,212.1,184.2z"/>
<path class="st7" d="M218.6,184.9l-14.4,38.3c2.3,0.5,4.9,0.8,7.8,0.8c13.3,0,24.1-10.5,24.1-20.9
	C236.1,194.4,228.7,187.1,218.6,184.9z"/>
<g>
	<path class="st1" d="M187.6,190.7L176,178c-1.1-1.2-3-1.3-4.2-0.2c-1.2,1.1-1.3,3-0.2,4.2l11.7,12.7c0.6,0.6,1.4,1,2.2,1
		c0.7,0,1.5-0.3,2-0.8C188.7,193.8,188.7,191.9,187.6,190.7z"/>
	<path class="st1" d="M325.1,177.9c-1.2-1.1-3.1-1-4.2,0.2l-11.7,12.7c-1.1,1.2-1,3.1,0.2,4.2c0.6,0.5,1.3,0.8,2,0.8
		c0.8,0,1.6-0.3,2.2-1l11.7-12.7C326.4,180.9,326.3,179,325.1,177.9z"/>
	<path class="st1" d="M284.1,179c-16.8,0-30.3,10.7-30.3,23.8c0,13.2,13.6,26.4,30.3,26.4c22.8,0,30.3-13.2,30.3-26.4
		C314.4,181.9,300.8,179,284.1,179z M284.1,224c-13.3,0-24.1-10.5-24.1-20.9s10.8-18.9,24.1-18.9c13.3,0,24.1,2.3,24.1,18.9
		C308.1,213.5,302.2,224,284.1,224z"/>
</g>
<path class="st7" d="M284.1,184.2c-13.3,0-24.1,8.5-24.1,18.9s10.8,20.9,24.1,20.9c18.1,0,24.1-10.5,24.1-20.9
	C308.1,186.5,297.4,184.2,284.1,184.2z"/>
<path class="st8" d="M284.1,184.2c-2.3,0-4.5,0.3-6.6,0.7c-10.1,2.2-17.5,9.5-17.5,18.2c0,8.6,7.4,17.3,17.4,20l14.5-38.5
	C289.5,184.3,286.8,184.2,284.1,184.2z"/>
<path class="st7" d="M291.9,184.6l-14.5,38.5c2.1,0.6,4.3,0.9,6.6,0.9c2.9,0,5.5-0.3,7.8-0.8c12-2.6,16.2-11.4,16.2-20.1
	C308.1,189.9,301.4,185.7,291.9,184.6z"/>
<g>
	<path class="st1" d="M261.3,195.7h-26.4c-0.2,0,4.8,10.4,5,10.4l18.9,0C259,206.1,261.5,195.7,261.3,195.7z"/>
	<path class="st1" d="M257.1,206.2c-2.6-1.8-5.8-3.7-9.2-3.7c-2.6,0-5,1.4-7.2,2.5c-3.4,1.7-3.4,11.2-3.4,11.2
		c2-4.1,6.1-6.7,10.6-6.7s8.7,2.6,10.6,6.7C258.6,216.2,259.7,208,257.1,206.2z"/>
</g>
<g>
	<path class="st6" d="M161.4,178c-8.4,1.4-14.9,5.1-10.1,32.9s10.7,29.1,19.1,27.7L161.4,178z"/>
	<path class="st6" d="M334.9,178l-9,60.6c8.4,1.4,14.4,0.1,19.1-27.7C349.7,183.1,343.3,179.5,334.9,178z"/>
</g>
</svg>
