<?xml version="1.0" encoding="utf-8"?>
<!-- Generator: Adobe Illustrator 19.2.0, SVG Export Plug-In . SVG Version: 6.00 Build 0)  -->
<svg version="1.1" id="Layer_1" xmlns="http://www.w3.org/2000/svg" xmlns:xlink="http://www.w3.org/1999/xlink" x="0px" y="0px"
	 viewBox="0 0 496.2 496.2" style="enable-background:new 0 0 496.2 496.2;" xml:space="preserve">
<style type="text/css">
	.st0{fill:#56A0CB;}
	.st1{fill:#261D17;}
	.st2{fill:#BA0F0F;}
	.st3{fill:#E2A176;}
	.st4{fill:#F4B382;}
	.st5{fill:#E24444;}
	.st6{fill:#D33D3D;}
	.st7{fill:#8E7920;}
	.st8{fill:#F4C4A4;}
	.st9{fill:#F4CCB0;}
</style>
<path class="st0" d="M248.1,0C111.1,0,0,111.1,0,248.1c0,137,111.1,248.1,248.1,248.1c137,0,248.1-111.1,248.1-248.1
	C496.2,111.1,385.1,0,248.1,0z"/>
<polygon class="st1" points="248.1,105.1 148.6,173.1 148.6,408.2 347.6,408.2 347.6,173.1 "/>
<path class="st2" d="M394.8,382.7c-7.3-27.3-69.9-49.3-147.1-49.3s-139.1,22.1-146.4,49.3c-3.3,12.2-7,35.2-10.1,57.5
	c42.7,34.9,97.4,55.9,156.9,55.9c59.5,0,114.1-21,156.9-55.9C401.8,417.9,398.1,394.9,394.8,382.7z"/>
<path class="st3" d="M287,282.1h-77.8c12.1,36.6,1,53.3,1,53.3l26.9,6.1h22l26.9-6.1C286,335.4,274.8,318.7,287,282.1z"/>
<path class="st4" d="M248.1,61.6c-44,0-79.8,21.2-79.8,113.6c0,31.3,5.6,55.8,14,74.7c18.4,41.6,50.3,56.1,65.8,56.1
	s47.3-14.5,65.8-56.1c8.4-18.9,14-43.4,14-74.7C327.8,82.7,292.1,61.6,248.1,61.6z"/>
<path class="st5" d="M258.5,257.7c-3-0.4-10.4,2.5-10.4,2.5s-7.6-2.9-10.6-2.5c-4.8,0.7-11.9,9-11.9,10.3c0,0,10.1,5.3,22.5,5.3
	s22.5-5.3,22.5-5.3S263.4,258.5,258.5,257.7z"/>
<path class="st6" d="M254.2,264.4c-2-0.1-4.5,1.7-6.1,1.7c-1.9,0-4.8-1.8-7-1.6c-13.1,0.8-15.5,3.6-15.5,3.6s10.1,9.1,22.5,9.1
	c12.4,0,22.5-9.1,22.5-9.1S267.9,265.1,254.2,264.4z"/>
<g>
	<path class="st3" d="M285.9,335.4c0,0-8.9,17.3-38.1,17.3c-29.2,0-37.5-17.3-37.5-17.3s-7,54.7,37.9,54.7
		C293.1,390.1,285.9,335.4,285.9,335.4z"/>
	<path class="st3" d="M247.8,317l-37.7,18.4c0,0,16.8,28.1,37.6,28.1s38.2-28.1,38.2-28.1L247.8,317z"/>
</g>
<path class="st1" d="M248.1,61.6L248.1,61.6L248.1,61.6c-54.8,0-99.2,21.2-99.2,113.6c0,0,130.1-1.4,130.1-35.1
	c0,33.6,68.3,35.1,68.3,35.1C347.3,82.7,302.9,61.6,248.1,61.6z"/>
<g>
	<path class="st4" d="M169.8,178c-7.6,1.3-13.4,4.6-9.1,29.7c4.3,25.2,9.6,26.3,17.3,25L169.8,178z"/>
	<path class="st4" d="M326.5,178l-8.1,54.8c7.6,1.3,13,0.1,17.3-25S334.1,179.3,326.5,178z"/>
</g>
<g>
	<path class="st1" d="M174.7,181.4c-1-6.6,0.1-11.8,0.1-11.8l-15,5.6c0,0,9.3,1.2,12.6,11.9C172.4,187.1,176.1,189.8,174.7,181.4z"
		/>
	<path class="st1" d="M321.4,169.6c0,0,1.1,5.3,0.1,11.8c-1.3,8.4,2.3,5.7,2.3,5.7c3.3-10.7,12.6-11.9,12.6-11.9L321.4,169.6z"/>
</g>
<g>
	<path class="st7" d="M335.4,231c-0.2-2.7-1.9-5-4.1-6.1l-1,2.3c1.5,0.8,2.5,2.2,2.7,4c0.2,2.8-1.8,5.2-4.6,5.4
		c-2.8,0.2-5.2-1.8-5.4-4.6c-0.1-1.6,0.5-3.1,1.7-4.1l-0.6-2.7c-2.3,1.4-3.8,4.1-3.6,7c0.3,4.1,3.9,7.2,8.1,6.9
		S335.7,235.1,335.4,231z"/>
	<path class="st7" d="M172.3,225.2l-0.6,2.7c1.1,1,1.8,2.5,1.7,4.1c-0.2,2.8-2.6,4.8-5.4,4.6c-2.8-0.2-4.8-2.6-4.6-5.4
		c0.1-1.8,1.2-3.2,2.7-4l-1-2.3c-2.3,1.1-3.9,3.4-4.1,6.1c-0.3,4.1,2.7,7.7,6.9,8.1s7.7-2.7,8.1-6.9
		C176.1,229.3,174.6,226.6,172.3,225.2z"/>
</g>
<path class="st1" d="M212.1,179c-16.8,0-30.3,2.9-30.3,23.8c0,13.2,7.5,26.4,30.3,26.4c16.8,0,30.3-13.2,30.3-26.4
	C242.4,189.7,228.8,179,212.1,179z M212.1,224c-18.1,0-24.1-10.5-24.1-20.9c0-16.6,10.8-18.9,24.1-18.9c13.3,0,24.1,8.5,24.1,18.9
	S225.4,224,212.1,224z"/>
<path class="st8" d="M212.1,184.2c-13.3,0-24.1,2.3-24.1,18.9c0,10.4,6,20.9,24.1,20.9c13.3,0,24.1-10.5,24.1-20.9
	S225.4,184.2,212.1,184.2z"/>
<path class="st9" d="M212.1,184.2c-13.3,0-24.1,2.3-24.1,18.9c0,8.8,4.2,17.5,16.2,20.1l14.4-38.3
	C216.6,184.4,214.4,184.2,212.1,184.2z"/>
<path class="st8" d="M218.6,184.9l-14.4,38.3c2.3,0.5,4.9,0.8,7.8,0.8c13.3,0,24.1-10.5,24.1-20.9
	C236.1,194.4,228.7,187.1,218.6,184.9z"/>
<g>
	<path class="st1" d="M187.6,190.7L176,178c-1.1-1.2-3-1.3-4.2-0.2c-1.2,1.1-1.3,3-0.2,4.2l11.7,12.7c0.6,0.6,1.4,1,2.2,1
		c0.7,0,1.5-0.3,2-0.8C188.7,193.8,188.7,191.9,187.6,190.7z"/>
	<path class="st1" d="M325.1,177.9c-1.2-1.1-3.1-1-4.2,0.2l-11.7,12.7c-1.1,1.2-1,3.1,0.2,4.2c0.6,0.5,1.3,0.8,2,0.8
		c0.8,0,1.6-0.3,2.2-1l11.7-12.7C326.4,180.9,326.3,179,325.1,177.9z"/>
	<path class="st1" d="M284.1,179c-16.8,0-30.3,10.7-30.3,23.8c0,13.2,13.6,26.4,30.3,26.4c22.8,0,30.3-13.2,30.3-26.4
		C314.4,181.9,300.8,179,284.1,179z M284.1,224c-13.3,0-24.1-10.5-24.1-20.9s10.8-18.9,24.1-18.9c13.3,0,24.1,2.3,24.1,18.9
		C308.1,213.5,302.2,224,284.1,224z"/>
</g>
<path class="st8" d="M284.1,184.2c-13.3,0-24.1,8.5-24.1,18.9s10.8,20.9,24.1,20.9c18.1,0,24.1-10.5,24.1-20.9
	C308.1,186.5,297.4,184.2,284.1,184.2z"/>
<path class="st9" d="M284.1,184.2c-2.3,0-4.5,0.3-6.6,0.7c-10.1,2.2-17.5,9.5-17.5,18.2c0,8.6,7.4,17.3,17.4,20l14.5-38.5
	C289.5,184.3,286.8,184.2,284.1,184.2z"/>
<path class="st8" d="M291.9,184.6l-14.5,38.5c2.1,0.6,4.3,0.9,6.6,0.9c2.9,0,5.5-0.3,7.8-0.8c12-2.6,16.2-11.4,16.2-20.1
	C308.1,189.9,301.4,185.7,291.9,184.6z"/>
<g>
	<path class="st1" d="M261.3,195.7h-26.4c-0.2,0,4.8,10.4,5,10.4l18.9,0C259,206.1,261.5,195.7,261.3,195.7z"/>
	<path class="st1" d="M257.1,206.2c-2.6-1.8-5.8-3.7-9.2-3.7c-2.6,0-5,1.4-7.2,2.5c-3.4,1.7-3.4,11.2-3.4,11.2
		c2-4.1,6.1-6.7,10.6-6.7s8.7,2.6,10.6,6.7C258.6,216.2,259.7,208,257.1,206.2z"/>
</g>
</svg>
